<svg id="Warstwa_1" data-name="Warstwa 1" xmlns="http://www.w3.org/2000/svg" viewBox="0 0 23.08 23.08"><title>checkbox-2</title><path id="Path_24" data-name="Path 24" d="M22.46,18.35a4.16,4.16,0,0,1-4.12,4.12H4.73A4.12,4.12,0,0,1,.61,18.35h0V4.73a4.08,4.08,0,0,1,4-4.12H18.41a4.1,4.1,0,0,1,4.06,4.12Zm-3.37-9.8a.83.83,0,0,0,.07-1.18.23.23,0,0,0-.07-.07L17.66,5.86a.84.84,0,0,0-1.18-.08l-.07.08L9.73,12.41l-3-3a.84.84,0,0,0-1.18-.07.46.46,0,0,0-.07.07L4,10.85A.85.85,0,0,0,4,12L4,12.1l5.12,5.12a.83.83,0,0,0,1.18.07.23.23,0,0,0,.07-.07Z" fill="#00d1a0"/></svg>