<svg id="Warstwa_1" data-name="Warstwa 1" xmlns="http://www.w3.org/2000/svg" viewBox="0 0 42.18 42.18"><title>start-timer</title><g id="Group_10" data-name="Group 10"><circle id="Ellipse_1" data-name="Ellipse 1" cx="21.09" cy="21.09" r="21.09" fill="#00d1a0"/><g id="Group_9" data-name="Group 9"><g id="Group_8" data-name="Group 8"><path id="Path_9" data-name="Path 9" d="M21.08,33.7A12.83,12.83,0,0,1,8.61,23.35a12.31,12.31,0,0,1,.73-7.24A1.84,1.84,0,0,1,11,15a1.75,1.75,0,0,1,.55.12,1.84,1.84,0,0,1,1.15,2.31c-.06.18-.12.43-.18.61-.12.42-.24.79-.37,1.16a9,9,0,0,0,5.42,10.22A8.75,8.75,0,0,0,21,30.1a9.17,9.17,0,0,0,9-7.17,9,9,0,0,0-4.44-9.86,2.4,2.4,0,0,1-1.22-1.34,1.73,1.73,0,0,1,.61-1.88,1.67,1.67,0,0,1,1-.43,1.62,1.62,0,0,1,.86.24,13.16,13.16,0,0,1,4.44,3.72,12.36,12.36,0,0,1,2.43,5.84,12.64,12.64,0,0,1-9.43,14.05c-.4.1-.81.18-1.22.24a8.54,8.54,0,0,1-1.33.12l-.61.06Z" fill="#fff"/><path id="Path_10" data-name="Path 10" d="M21.14,23.41a2.51,2.51,0,0,1-1.95-1c-1.4-1.76-3-3.83-4.56-5.9-.73-.85-1.34-1.76-2-2.68L12,13c-.12-.18-.18-.3-.3-.49l-.06-.18a.55.55,0,0,1,.06-.73.87.87,0,0,1,.55-.24.35.35,0,0,1,.24.06l.18.12a2.22,2.22,0,0,1,.49.3l1,.67c1,.73,2.13,1.52,3.16,2.31,1.77,1.34,3.53,2.74,5.24,4.08l.12.06a2.41,2.41,0,0,1,.55,3.28A2.53,2.53,0,0,1,21.14,23.41Z" fill="#fff"/><path id="Path_11" data-name="Path 11" d="M21.08,13.19a2.71,2.71,0,0,1-1.77-.73,2.18,2.18,0,0,1-.67-1.76,2.47,2.47,0,1,1,2.46,2.49Z" fill="#fff"/></g></g></g></svg>