<svg id="Warstwa_1" data-name="Warstwa 1" xmlns="http://www.w3.org/2000/svg" viewBox="0 0 33 33"><title>history</title><g id="Group_3" data-name="Group 3"><path id="Path_1" data-name="Path 1" d="M16.5,33A16.29,16.29,0,0,1,4,27.2l2.7-2.7a12.5,12.5,0,0,0,9.8,4.7,12.7,12.7,0,0,0,0-25.4A12.43,12.43,0,0,0,7.9,7.2l-.8.7,3.8,3.9a.43.43,0,0,1,.1.5c-.1.2-.2.3-.4.3H.5a.54.54,0,0,1-.5-.5V1.9c0-.2.1-.3.3-.4H.5a.37.37,0,0,1,.3.1L4.5,5.2l.7-.7A16.75,16.75,0,0,1,16.5,0a16.5,16.5,0,0,1,0,33Z" fill="#fff"/><path id="Path_2" data-name="Path 2" d="M19.4,18.7a.68.68,0,0,1-.67.7H11.4a.68.68,0,0,1-.7-.67V17.2a.68.68,0,0,1,.67-.7H16.5v-8a.68.68,0,0,1,.67-.7H18.7a.68.68,0,0,1,.7.67V18.7Z" fill="#fff"/></g></svg>