<svg id="Warstwa_1" data-name="Warstwa 1" xmlns="http://www.w3.org/2000/svg" viewBox="0 0 35 35"><title>settings</title><path id="Path_5" data-name="Path 5" d="M35,20.1c0,.3-.3.8-.6.8l-4.2.6a9.5,9.5,0,0,1-.9,2.1c.8,1.1,1.6,2.1,2.4,3.1a1.42,1.42,0,0,1,.2.6.72.72,0,0,1-.2.5c-.5.7-3.6,4.1-4.4,4.1a1.42,1.42,0,0,1-.6-.2l-3.1-2.5-2.1.9a28.32,28.32,0,0,1-.7,4.2.85.85,0,0,1-.8.7H15a.77.77,0,0,1-.8-.7l-.6-4.2a17.14,17.14,0,0,1-2.1-.8L8.3,31.7a1.42,1.42,0,0,1-.6.2,1.42,1.42,0,0,1-.6-.2,33.26,33.26,0,0,1-3.8-3.8c-.1-.2-.2-.3-.2-.5a.74.74,0,0,1,.2-.5c.8-1,1.6-2.1,2.4-3.1a9.09,9.09,0,0,1-.9-2.3L.6,20.9A1.15,1.15,0,0,1,0,20V14.9c0-.3.3-.8.6-.8l4.2-.6a9.5,9.5,0,0,1,.9-2.1A35.58,35.58,0,0,0,3.3,8.2a.72.72,0,0,1,0-1c.5-.8,3.6-4.1,4.4-4.1a1.42,1.42,0,0,1,.6.2l3.1,2.4,2.1-.9A28.54,28.54,0,0,1,14.2.6c0-.3.4-.6.8-.6h5a.77.77,0,0,1,.8.7l.6,4.2a17.14,17.14,0,0,1,2.1.8l3.2-2.4a.77.77,0,0,1,.5-.2,1.42,1.42,0,0,1,.6.2,28,28,0,0,1,3.8,3.9.72.72,0,0,1,0,1c-.8,1-1.6,2.1-2.4,3.1a10.28,10.28,0,0,1,.9,2.2l4.2.6a.85.85,0,0,1,.7.8ZM17.5,11.7a5.8,5.8,0,1,0,5.8,5.8h0A5.8,5.8,0,0,0,17.5,11.7Z" fill="#fff"/></svg>