<svg id="Warstwa_1" data-name="Warstwa 1" xmlns="http://www.w3.org/2000/svg" viewBox="0 0 42.18 42.18"><title>add-exp</title><g id="Group_11" data-name="Group 11"><circle id="Ellipse_1-2" data-name="Ellipse 1-2" cx="21.09" cy="21.09" r="21.09" fill="#00d1a0"/><g id="Group_12" data-name="Group 12"><path id="Path_12" data-name="Path 12" d="M30.55,22.4a1.3,1.3,0,0,1-1.28,1.29H23.72v5.55a1.29,1.29,0,0,1-1.29,1.28H19.86a1.29,1.29,0,0,1-1.29-1.28V23.69H13.08A1.29,1.29,0,0,1,11.8,22.4V19.83a1.29,1.29,0,0,1,1.28-1.28h5.55V13.06a1.31,1.31,0,0,1,1.29-1.29h2.57a1.29,1.29,0,0,1,1.28,1.29v5.55h5.55a1.29,1.29,0,0,1,1.29,1.28V22.4Z" fill="#fff"/></g></g></svg>