<svg id="Warstwa_1" data-name="Warstwa 1" xmlns="http://www.w3.org/2000/svg" viewBox="0 0 18.81 18.75"><title>add-exp-history</title><g id="Group_17" data-name="Group 17"><path id="Path_12" data-name="Path 12" d="M18.76,10.63a1.31,1.31,0,0,1-1.29,1.29H11.92v5.55a1.29,1.29,0,0,1-1.28,1.28H8.06a1.29,1.29,0,0,1-1.28-1.28V11.92H1.28A1.3,1.3,0,0,1,0,10.63V8.06A1.3,1.3,0,0,1,1.28,6.78H6.84V1.28A1.3,1.3,0,0,1,8.12,0h2.57A1.3,1.3,0,0,1,12,1.28V6.84h5.55a1.28,1.28,0,0,1,1.28,1.28v2.51Z" fill="#e4e4e4"/></g></svg>