<svg id="Warstwa_1" data-name="Warstwa 1" xmlns="http://www.w3.org/2000/svg" viewBox="0 0 25.44 25.43"><title>timer-settings</title><g id="Group_32" data-name="Group 32"><g id="Group_8" data-name="Group 8"><path id="Path_9" data-name="Path 9" d="M12.71,25.43A12.82,12.82,0,0,1,.24,15.09,12.38,12.38,0,0,1,1,7.85,1.89,1.89,0,0,1,2.61,6.69a1.69,1.69,0,0,1,.55.12A1.85,1.85,0,0,1,4.32,9.13c-.06.18-.12.42-.19.6-.12.43-.24.79-.36,1.16A9,9,0,0,0,9.18,21.11a8.68,8.68,0,0,0,3.47.73,9.19,9.19,0,0,0,9-7.18,9,9,0,0,0-4.45-9.85,2.44,2.44,0,0,1-1.21-1.34,1.74,1.74,0,0,1,.61-1.89,1.69,1.69,0,0,1,1-.42,1.43,1.43,0,0,1,.85.24,13.06,13.06,0,0,1,4.44,3.71A12.41,12.41,0,0,1,25.31,11,12.63,12.63,0,0,1,15.88,25a10.15,10.15,0,0,1-1.22.25,10,10,0,0,1-1.34.12l-.61.06Z"/><path id="Path_10" data-name="Path 10" d="M12.77,15.15a2.54,2.54,0,0,1-1.94-1c-1.4-1.77-3-3.84-4.57-5.9-.73-.86-1.33-1.77-2-2.68l-.6-.86c-.13-.18-.19-.3-.3-.48l-.06-.19a.55.55,0,0,1,.06-.73.92.92,0,0,1,.54-.24.39.39,0,0,1,.24.06l.19.13a1.61,1.61,0,0,1,.48.3l1,.66c1,.73,2.13,1.53,3.16,2.32,1.76,1.33,3.53,2.73,5.23,4.07l.12.06A2.4,2.4,0,0,1,14.84,14,2.54,2.54,0,0,1,12.77,15.15Z"/><path id="Path_11" data-name="Path 11" d="M12.71,4.93A2.7,2.7,0,0,1,11,4.2a2.18,2.18,0,0,1-.67-1.77,2.47,2.47,0,1,1,2.45,2.5Z"/></g></g></svg>