<svg xmlns="http://www.w3.org/2000/svg" xmlns:xlink="http://www.w3.org/1999/xlink" viewBox="0 0 360 940">
  <defs>
    <style>
      .cls-1 {
        clip-path: url(#clip-History);
      }

      .cls-2 {
        fill: #00d1a0;
      }

      .cls-3 {
        fill: #fff;
      }

      .cls-4 {
        fill: #707070;
        font-size: 12px;
        font-family: Roboto-Regular, Roboto;
      }

      .cls-5 {
        font-size: 18px;
        font-family: Roboto-Bold, Roboto;
        font-weight: 700;
      }

      .cls-6 {
        fill: #e4e4e4;
      }

      .cls-7 {
        filter: url(#Rectangle_1-11);
      }

      .cls-8 {
        filter: url(#Rectangle_1-10);
      }

      .cls-9 {
        filter: url(#Rectangle_1-9);
      }

      .cls-10 {
        filter: url(#Rectangle_1-8);
      }

      .cls-11 {
        filter: url(#Rectangle_1-7);
      }

      .cls-12 {
        filter: url(#Rectangle_1-6);
      }

      .cls-13 {
        filter: url(#Rectangle_1-5);
      }

      .cls-14 {
        filter: url(#Rectangle_1-4);
      }

      .cls-15 {
        filter: url(#Rectangle_1-3);
      }

      .cls-16 {
        filter: url(#Rectangle_1-2);
      }

      .cls-17 {
        filter: url(#Rectangle_1);
      }
    </style>
    <filter id="Rectangle_1" x="2" y="103" width="356" height="76" filterUnits="userSpaceOnUse">
      <feOffset dy="1" input="SourceAlpha"/>
      <feGaussianBlur stdDeviation="1" result="blur"/>
      <feFlood flood-opacity="0.161"/>
      <feComposite operator="in" in2="blur"/>
      <feComposite in="SourceGraphic"/>
    </filter>
    <filter id="Rectangle_1-2" x="2" y="255" width="356" height="76" filterUnits="userSpaceOnUse">
      <feOffset dy="1" input="SourceAlpha"/>
      <feGaussianBlur stdDeviation="1" result="blur-2"/>
      <feFlood flood-opacity="0.161"/>
      <feComposite operator="in" in2="blur-2"/>
      <feComposite in="SourceGraphic"/>
    </filter>
    <filter id="Rectangle_1-3" x="2" y="179" width="356" height="76" filterUnits="userSpaceOnUse">
      <feOffset dy="1" input="SourceAlpha"/>
      <feGaussianBlur stdDeviation="1" result="blur-3"/>
      <feFlood flood-opacity="0.161"/>
      <feComposite operator="in" in2="blur-3"/>
      <feComposite in="SourceGraphic"/>
    </filter>
    <filter id="Rectangle_1-4" x="2" y="331" width="356" height="76" filterUnits="userSpaceOnUse">
      <feOffset dy="1" input="SourceAlpha"/>
      <feGaussianBlur stdDeviation="1" result="blur-4"/>
      <feFlood flood-opacity="0.161"/>
      <feComposite operator="in" in2="blur-4"/>
      <feComposite in="SourceGraphic"/>
    </filter>
    <filter id="Rectangle_1-5" x="2" y="407" width="356" height="76" filterUnits="userSpaceOnUse">
      <feOffset dy="1" input="SourceAlpha"/>
      <feGaussianBlur stdDeviation="1" result="blur-5"/>
      <feFlood flood-opacity="0.161"/>
      <feComposite operator="in" in2="blur-5"/>
      <feComposite in="SourceGraphic"/>
    </filter>
    <filter id="Rectangle_1-6" x="2" y="483" width="356" height="76" filterUnits="userSpaceOnUse">
      <feOffset dy="1" input="SourceAlpha"/>
      <feGaussianBlur stdDeviation="1" result="blur-6"/>
      <feFlood flood-opacity="0.161"/>
      <feComposite operator="in" in2="blur-6"/>
      <feComposite in="SourceGraphic"/>
    </filter>
    <filter id="Rectangle_1-7" x="2" y="559" width="356" height="76" filterUnits="userSpaceOnUse">
      <feOffset dy="1" input="SourceAlpha"/>
      <feGaussianBlur stdDeviation="1" result="blur-7"/>
      <feFlood flood-opacity="0.161"/>
      <feComposite operator="in" in2="blur-7"/>
      <feComposite in="SourceGraphic"/>
    </filter>
    <filter id="Rectangle_1-8" x="2" y="635" width="356" height="76" filterUnits="userSpaceOnUse">
      <feOffset dy="1" input="SourceAlpha"/>
      <feGaussianBlur stdDeviation="1" result="blur-8"/>
      <feFlood flood-opacity="0.161"/>
      <feComposite operator="in" in2="blur-8"/>
      <feComposite in="SourceGraphic"/>
    </filter>
    <filter id="Rectangle_1-9" x="2" y="711" width="356" height="76" filterUnits="userSpaceOnUse">
      <feOffset dy="1" input="SourceAlpha"/>
      <feGaussianBlur stdDeviation="1" result="blur-9"/>
      <feFlood flood-opacity="0.161"/>
      <feComposite operator="in" in2="blur-9"/>
      <feComposite in="SourceGraphic"/>
    </filter>
    <filter id="Rectangle_1-10" x="2" y="787" width="356" height="76" filterUnits="userSpaceOnUse">
      <feOffset dy="1" input="SourceAlpha"/>
      <feGaussianBlur stdDeviation="1" result="blur-10"/>
      <feFlood flood-opacity="0.161"/>
      <feComposite operator="in" in2="blur-10"/>
      <feComposite in="SourceGraphic"/>
    </filter>
    <filter id="Rectangle_1-11" x="2" y="863" width="356" height="76" filterUnits="userSpaceOnUse">
      <feOffset dy="1" input="SourceAlpha"/>
      <feGaussianBlur stdDeviation="1" result="blur-11"/>
      <feFlood flood-opacity="0.161"/>
      <feComposite operator="in" in2="blur-11"/>
      <feComposite in="SourceGraphic"/>
    </filter>
    <clipPath id="clip-History">
      <rect width="360" height="940"/>
    </clipPath>
  </defs>
  <g id="History" class="cls-1">
    <rect class="cls-6" width="360" height="940"/>
    <rect id="Rectangle_13" data-name="Rectangle 13" class="cls-2" width="360" height="97"/>
    <g id="Group_14" data-name="Group 14" transform="translate(42 44.5)">
      <path id="Path_15" data-name="Path 15" class="cls-3" d="M9.131,15.059l9.963,9.963a1.194,1.194,0,0,1,0,1.729l-3.129,3.129a1.194,1.194,0,0,1-1.729,0L.321,15.965a1.194,1.194,0,0,1,0-1.729L14.235.321a1.194,1.194,0,0,1,1.729,0l3.129,3.129a1.194,1.194,0,0,1,0,1.729Z" transform="translate(0.05 0.05)"/>
    </g>
    <g id="Skill" transform="translate(0 101)">
      <g class="cls-17" transform="matrix(1, 0, 0, 1, 0, -101)">
        <rect id="Rectangle_1-12" data-name="Rectangle 1" class="cls-3" width="350" height="70" rx="3" transform="translate(5 105)"/>
      </g>
      <text id="today_12:30_12:55" data-name="today 12:30 – 12:55" class="cls-4" transform="translate(23 26)"><tspan x="0" y="0">today 12:30 – 12:55</tspan></text>
      <text id="Jazda_na_rolkach" data-name="Jazda na rolkach" class="cls-5" transform="translate(23 54)"><tspan x="0" y="0">Jazda na rolkach</tspan></text>
      <text id="_30_exp" data-name="+30 exp" class="cls-4" transform="translate(299 26)"><tspan x="0" y="0">+30 exp</tspan></text>
      <g id="Group_16" data-name="Group 16" transform="translate(309.362 34.265)">
        <g id="Group_8" data-name="Group 8" transform="translate(0 0)">
          <path id="Path_9" data-name="Path 9" class="cls-6" d="M12.615,26.174A12.823,12.823,0,0,1,.143,15.831a12.37,12.37,0,0,1,.73-7.239A1.88,1.88,0,0,1,2.516,7.436a1.776,1.776,0,0,1,.548.122A1.839,1.839,0,0,1,4.219,9.87c-.061.183-.122.426-.183.608-.122.426-.243.791-.365,1.156a9.042,9.042,0,0,0,5.414,10.22,8.655,8.655,0,0,0,3.468.73A9.185,9.185,0,0,0,21.5,15.406,8.987,8.987,0,0,0,17.056,5.55a2.417,2.417,0,0,1-1.217-1.338,1.737,1.737,0,0,1,.608-1.886A1.726,1.726,0,0,1,17.482,1.9a1.521,1.521,0,0,1,.852.243,13.075,13.075,0,0,1,4.441,3.711,12.39,12.39,0,0,1,2.433,5.84,12.634,12.634,0,0,1-9.43,14.053,10.743,10.743,0,0,1-1.217.243,9.113,9.113,0,0,1-1.338.122l-.608.061Z" transform="translate(0.1 -0.744)"/>
          <path id="Path_10" data-name="Path 10" class="cls-6" d="M14.719,17.146a2.54,2.54,0,0,1-1.947-.973c-1.4-1.764-2.981-3.833-4.563-5.9C7.48,9.419,6.872,8.507,6.2,7.594l-.608-.852c-.122-.183-.183-.3-.3-.487l-.061-.183a.554.554,0,0,1,.061-.73A.906.906,0,0,1,5.837,5.1a.366.366,0,0,1,.243.061l.183.122a2.134,2.134,0,0,1,.487.3l.973.669c1.034.73,2.129,1.521,3.163,2.312,1.764,1.338,3.528,2.738,5.232,4.076l.122.061a2.41,2.41,0,0,1,.548,3.285A2.528,2.528,0,0,1,14.719,17.146Z" transform="translate(-1.944 -1.997)"/>
          <path id="Path_11" data-name="Path 11" class="cls-6" d="M19.228,4.928a2.71,2.71,0,0,1-1.764-.73,2.166,2.166,0,0,1-.669-1.764,2.464,2.464,0,0,1,4.928.061,2.454,2.454,0,0,1-2.494,2.433Z" transform="translate(-6.513 0)"/>
        </g>
      </g>
    </g>
    <g id="Skill-2" data-name="Skill" transform="translate(0 253)">
      <g class="cls-16" transform="matrix(1, 0, 0, 1, 0, -253)">
        <rect id="Rectangle_1-13" data-name="Rectangle 1" class="cls-3" width="350" height="70" rx="3" transform="translate(5 257)"/>
      </g>
      <text id="yesterday_21:21" data-name="yesterday 21:21" class="cls-4" transform="translate(23 26)"><tspan x="0" y="0">yesterday 21:21</tspan></text>
      <text id="Picie_wody" data-name="Picie wody" class="cls-5" transform="translate(23 54)"><tspan x="0" y="0">Picie wody</tspan></text>
      <text id="_10_exp" data-name="+10 exp" class="cls-4" transform="translate(299 26)"><tspan x="0" y="0">+10 exp</tspan></text>
      <g id="Group_17" data-name="Group 17" transform="translate(312.732 37.77)">
        <path id="Path_12" data-name="Path 12" class="cls-6" d="M18.756,10.634A1.3,1.3,0,0,1,17.47,11.92H11.92V17.47a1.3,1.3,0,0,1-1.285,1.285H8.063A1.3,1.3,0,0,1,6.778,17.47V11.92H1.285A1.3,1.3,0,0,1,0,10.634V8.063A1.3,1.3,0,0,1,1.285,6.778H6.836V1.285A1.3,1.3,0,0,1,8.122,0h2.571a1.3,1.3,0,0,1,1.285,1.285V6.836h5.551a1.3,1.3,0,0,1,1.285,1.285v2.512Z"/>
      </g>
    </g>
    <g id="Skill-3" data-name="Skill" transform="translate(0 177)">
      <g class="cls-15" transform="matrix(1, 0, 0, 1, 0, -177)">
        <rect id="Rectangle_1-14" data-name="Rectangle 1" class="cls-3" width="350" height="70" rx="3" transform="translate(5 181)"/>
      </g>
      <text id="today_12:00_12:25" data-name="today 12:00 – 12:25" class="cls-4" transform="translate(23 26)"><tspan x="0" y="0">today 12:00 – 12:25</tspan></text>
      <text id="Jazda_na_rolkach-2" data-name="Jazda na rolkach" class="cls-5" transform="translate(23 54)"><tspan x="0" y="0">Jazda na rolkach</tspan></text>
      <text id="_30_exp-2" data-name="+30 exp" class="cls-4" transform="translate(299 26)"><tspan x="0" y="0">+30 exp</tspan></text>
      <g id="Group_16-2" data-name="Group 16" transform="translate(309.362 34.265)">
        <g id="Group_8-2" data-name="Group 8" transform="translate(0 0)">
          <path id="Path_9-2" data-name="Path 9" class="cls-6" d="M12.615,26.174A12.823,12.823,0,0,1,.143,15.831a12.37,12.37,0,0,1,.73-7.239A1.88,1.88,0,0,1,2.516,7.436a1.776,1.776,0,0,1,.548.122A1.839,1.839,0,0,1,4.219,9.87c-.061.183-.122.426-.183.608-.122.426-.243.791-.365,1.156a9.042,9.042,0,0,0,5.414,10.22,8.655,8.655,0,0,0,3.468.73A9.185,9.185,0,0,0,21.5,15.406,8.987,8.987,0,0,0,17.056,5.55a2.417,2.417,0,0,1-1.217-1.338,1.737,1.737,0,0,1,.608-1.886A1.726,1.726,0,0,1,17.482,1.9a1.521,1.521,0,0,1,.852.243,13.075,13.075,0,0,1,4.441,3.711,12.39,12.39,0,0,1,2.433,5.84,12.634,12.634,0,0,1-9.43,14.053,10.743,10.743,0,0,1-1.217.243,9.113,9.113,0,0,1-1.338.122l-.608.061Z" transform="translate(0.1 -0.744)"/>
          <path id="Path_10-2" data-name="Path 10" class="cls-6" d="M14.719,17.146a2.54,2.54,0,0,1-1.947-.973c-1.4-1.764-2.981-3.833-4.563-5.9C7.48,9.419,6.872,8.507,6.2,7.594l-.608-.852c-.122-.183-.183-.3-.3-.487l-.061-.183a.554.554,0,0,1,.061-.73A.906.906,0,0,1,5.837,5.1a.366.366,0,0,1,.243.061l.183.122a2.134,2.134,0,0,1,.487.3l.973.669c1.034.73,2.129,1.521,3.163,2.312,1.764,1.338,3.528,2.738,5.232,4.076l.122.061a2.41,2.41,0,0,1,.548,3.285A2.528,2.528,0,0,1,14.719,17.146Z" transform="translate(-1.944 -1.997)"/>
          <path id="Path_11-2" data-name="Path 11" class="cls-6" d="M19.228,4.928a2.71,2.71,0,0,1-1.764-.73,2.166,2.166,0,0,1-.669-1.764,2.464,2.464,0,0,1,4.928.061,2.454,2.454,0,0,1-2.494,2.433Z" transform="translate(-6.513 0)"/>
        </g>
      </g>
    </g>
    <g id="Skill-4" data-name="Skill" transform="translate(0 329)">
      <g class="cls-14" transform="matrix(1, 0, 0, 1, 0, -329)">
        <rect id="Rectangle_1-15" data-name="Rectangle 1" class="cls-3" width="350" height="70" rx="3" transform="translate(5 333)"/>
      </g>
      <text id="yesterday_17:11" data-name="yesterday 17:11" class="cls-4" transform="translate(23 26)"><tspan x="0" y="0">yesterday 17:11</tspan></text>
      <text id="Picie_wody-2" data-name="Picie wody" class="cls-5" transform="translate(23 54)"><tspan x="0" y="0">Picie wody</tspan></text>
      <text id="_10_exp-2" data-name="+10 exp" class="cls-4" transform="translate(299 26)"><tspan x="0" y="0">+10 exp</tspan></text>
      <g id="Group_17-2" data-name="Group 17" transform="translate(312.732 37.77)">
        <path id="Path_12-2" data-name="Path 12" class="cls-6" d="M18.756,10.634A1.3,1.3,0,0,1,17.47,11.92H11.92V17.47a1.3,1.3,0,0,1-1.285,1.285H8.063A1.3,1.3,0,0,1,6.778,17.47V11.92H1.285A1.3,1.3,0,0,1,0,10.634V8.063A1.3,1.3,0,0,1,1.285,6.778H6.836V1.285A1.3,1.3,0,0,1,8.122,0h2.571a1.3,1.3,0,0,1,1.285,1.285V6.836h5.551a1.3,1.3,0,0,1,1.285,1.285v2.512Z"/>
      </g>
    </g>
    <g id="Skill-5" data-name="Skill" transform="translate(0 405)">
      <g class="cls-13" transform="matrix(1, 0, 0, 1, 0, -405)">
        <rect id="Rectangle_1-16" data-name="Rectangle 1" class="cls-3" width="350" height="70" rx="3" transform="translate(5 409)"/>
      </g>
      <text id="_19.05_11:50_12:15" data-name="19.05 11:50 – 12:15" class="cls-4" transform="translate(23 26)"><tspan x="0" y="0">19.05 11:50 – 12:15</tspan></text>
      <text id="Robienie_na_drutach" data-name="Robienie na drutach" class="cls-5" transform="translate(23 54)"><tspan x="0" y="0">Robienie na drutach</tspan></text>
      <text id="_30_exp-3" data-name="+30 exp" class="cls-4" transform="translate(299 26)"><tspan x="0" y="0">+30 exp</tspan></text>
      <g id="Group_16-3" data-name="Group 16" transform="translate(309.362 34.265)">
        <g id="Group_8-3" data-name="Group 8" transform="translate(0 0)">
          <path id="Path_9-3" data-name="Path 9" class="cls-6" d="M12.615,26.174A12.823,12.823,0,0,1,.143,15.831a12.37,12.37,0,0,1,.73-7.239A1.88,1.88,0,0,1,2.516,7.436a1.776,1.776,0,0,1,.548.122A1.839,1.839,0,0,1,4.219,9.87c-.061.183-.122.426-.183.608-.122.426-.243.791-.365,1.156a9.042,9.042,0,0,0,5.414,10.22,8.655,8.655,0,0,0,3.468.73A9.185,9.185,0,0,0,21.5,15.406,8.987,8.987,0,0,0,17.056,5.55a2.417,2.417,0,0,1-1.217-1.338,1.737,1.737,0,0,1,.608-1.886A1.726,1.726,0,0,1,17.482,1.9a1.521,1.521,0,0,1,.852.243,13.075,13.075,0,0,1,4.441,3.711,12.39,12.39,0,0,1,2.433,5.84,12.634,12.634,0,0,1-9.43,14.053,10.743,10.743,0,0,1-1.217.243,9.113,9.113,0,0,1-1.338.122l-.608.061Z" transform="translate(0.1 -0.744)"/>
          <path id="Path_10-3" data-name="Path 10" class="cls-6" d="M14.719,17.146a2.54,2.54,0,0,1-1.947-.973c-1.4-1.764-2.981-3.833-4.563-5.9C7.48,9.419,6.872,8.507,6.2,7.594l-.608-.852c-.122-.183-.183-.3-.3-.487l-.061-.183a.554.554,0,0,1,.061-.73A.906.906,0,0,1,5.837,5.1a.366.366,0,0,1,.243.061l.183.122a2.134,2.134,0,0,1,.487.3l.973.669c1.034.73,2.129,1.521,3.163,2.312,1.764,1.338,3.528,2.738,5.232,4.076l.122.061a2.41,2.41,0,0,1,.548,3.285A2.528,2.528,0,0,1,14.719,17.146Z" transform="translate(-1.944 -1.997)"/>
          <path id="Path_11-3" data-name="Path 11" class="cls-6" d="M19.228,4.928a2.71,2.71,0,0,1-1.764-.73,2.166,2.166,0,0,1-.669-1.764,2.464,2.464,0,0,1,4.928.061,2.454,2.454,0,0,1-2.494,2.433Z" transform="translate(-6.513 0)"/>
        </g>
      </g>
    </g>
    <g id="Skill-6" data-name="Skill" transform="translate(0 481)">
      <g class="cls-12" transform="matrix(1, 0, 0, 1, 0, -481)">
        <rect id="Rectangle_1-17" data-name="Rectangle 1" class="cls-3" width="350" height="70" rx="3" transform="translate(5 485)"/>
      </g>
      <text id="yesterday_21:21-2" data-name="yesterday 21:21" class="cls-4" transform="translate(23 26)"><tspan x="0" y="0">yesterday 21:21</tspan></text>
      <text id="Picie_wody-3" data-name="Picie wody" class="cls-5" transform="translate(23 54)"><tspan x="0" y="0">Picie wody</tspan></text>
      <text id="_10_exp-3" data-name="+10 exp" class="cls-4" transform="translate(299 26)"><tspan x="0" y="0">+10 exp</tspan></text>
      <g id="Group_17-3" data-name="Group 17" transform="translate(312.732 37.77)">
        <path id="Path_12-3" data-name="Path 12" class="cls-6" d="M18.756,10.634A1.3,1.3,0,0,1,17.47,11.92H11.92V17.47a1.3,1.3,0,0,1-1.285,1.285H8.063A1.3,1.3,0,0,1,6.778,17.47V11.92H1.285A1.3,1.3,0,0,1,0,10.634V8.063A1.3,1.3,0,0,1,1.285,6.778H6.836V1.285A1.3,1.3,0,0,1,8.122,0h2.571a1.3,1.3,0,0,1,1.285,1.285V6.836h5.551a1.3,1.3,0,0,1,1.285,1.285v2.512Z"/>
      </g>
    </g>
    <g id="Skill-7" data-name="Skill" transform="translate(0 557)">
      <g class="cls-11" transform="matrix(1, 0, 0, 1, 0, -557)">
        <rect id="Rectangle_1-18" data-name="Rectangle 1" class="cls-3" width="350" height="70" rx="3" transform="translate(5 561)"/>
      </g>
      <text id="_19.05_11:50_12:15-2" data-name="19.05 11:50 – 12:15" class="cls-4" transform="translate(23 26)"><tspan x="0" y="0">19.05 11:50 – 12:15</tspan></text>
      <text id="Robienie_na_drutach-2" data-name="Robienie na drutach" class="cls-5" transform="translate(23 54)"><tspan x="0" y="0">Robienie na drutach</tspan></text>
      <text id="_30_exp-4" data-name="+30 exp" class="cls-4" transform="translate(299 26)"><tspan x="0" y="0">+30 exp</tspan></text>
      <g id="Group_16-4" data-name="Group 16" transform="translate(309.362 34.265)">
        <g id="Group_8-4" data-name="Group 8" transform="translate(0 0)">
          <path id="Path_9-4" data-name="Path 9" class="cls-6" d="M12.615,26.174A12.823,12.823,0,0,1,.143,15.831a12.37,12.37,0,0,1,.73-7.239A1.88,1.88,0,0,1,2.516,7.436a1.776,1.776,0,0,1,.548.122A1.839,1.839,0,0,1,4.219,9.87c-.061.183-.122.426-.183.608-.122.426-.243.791-.365,1.156a9.042,9.042,0,0,0,5.414,10.22,8.655,8.655,0,0,0,3.468.73A9.185,9.185,0,0,0,21.5,15.406,8.987,8.987,0,0,0,17.056,5.55a2.417,2.417,0,0,1-1.217-1.338,1.737,1.737,0,0,1,.608-1.886A1.726,1.726,0,0,1,17.482,1.9a1.521,1.521,0,0,1,.852.243,13.075,13.075,0,0,1,4.441,3.711,12.39,12.39,0,0,1,2.433,5.84,12.634,12.634,0,0,1-9.43,14.053,10.743,10.743,0,0,1-1.217.243,9.113,9.113,0,0,1-1.338.122l-.608.061Z" transform="translate(0.1 -0.744)"/>
          <path id="Path_10-4" data-name="Path 10" class="cls-6" d="M14.719,17.146a2.54,2.54,0,0,1-1.947-.973c-1.4-1.764-2.981-3.833-4.563-5.9C7.48,9.419,6.872,8.507,6.2,7.594l-.608-.852c-.122-.183-.183-.3-.3-.487l-.061-.183a.554.554,0,0,1,.061-.73A.906.906,0,0,1,5.837,5.1a.366.366,0,0,1,.243.061l.183.122a2.134,2.134,0,0,1,.487.3l.973.669c1.034.73,2.129,1.521,3.163,2.312,1.764,1.338,3.528,2.738,5.232,4.076l.122.061a2.41,2.41,0,0,1,.548,3.285A2.528,2.528,0,0,1,14.719,17.146Z" transform="translate(-1.944 -1.997)"/>
          <path id="Path_11-4" data-name="Path 11" class="cls-6" d="M19.228,4.928a2.71,2.71,0,0,1-1.764-.73,2.166,2.166,0,0,1-.669-1.764,2.464,2.464,0,0,1,4.928.061,2.454,2.454,0,0,1-2.494,2.433Z" transform="translate(-6.513 0)"/>
        </g>
      </g>
    </g>
    <g id="Skill-8" data-name="Skill" transform="translate(0 633)">
      <g class="cls-10" transform="matrix(1, 0, 0, 1, 0, -633)">
        <rect id="Rectangle_1-19" data-name="Rectangle 1" class="cls-3" width="350" height="70" rx="3" transform="translate(5 637)"/>
      </g>
      <text id="_19.05_11:50_12:15-3" data-name="19.05 11:50 – 12:15" class="cls-4" transform="translate(23 26)"><tspan x="0" y="0">19.05 11:50 – 12:15</tspan></text>
      <text id="Robienie_na_drutach-3" data-name="Robienie na drutach" class="cls-5" transform="translate(23 54)"><tspan x="0" y="0">Robienie na drutach</tspan></text>
      <text id="_30_exp-5" data-name="+30 exp" class="cls-4" transform="translate(299 26)"><tspan x="0" y="0">+30 exp</tspan></text>
      <g id="Group_16-5" data-name="Group 16" transform="translate(309.362 34.265)">
        <g id="Group_8-5" data-name="Group 8" transform="translate(0 0)">
          <path id="Path_9-5" data-name="Path 9" class="cls-6" d="M12.615,26.174A12.823,12.823,0,0,1,.143,15.831a12.37,12.37,0,0,1,.73-7.239A1.88,1.88,0,0,1,2.516,7.436a1.776,1.776,0,0,1,.548.122A1.839,1.839,0,0,1,4.219,9.87c-.061.183-.122.426-.183.608-.122.426-.243.791-.365,1.156a9.042,9.042,0,0,0,5.414,10.22,8.655,8.655,0,0,0,3.468.73A9.185,9.185,0,0,0,21.5,15.406,8.987,8.987,0,0,0,17.056,5.55a2.417,2.417,0,0,1-1.217-1.338,1.737,1.737,0,0,1,.608-1.886A1.726,1.726,0,0,1,17.482,1.9a1.521,1.521,0,0,1,.852.243,13.075,13.075,0,0,1,4.441,3.711,12.39,12.39,0,0,1,2.433,5.84,12.634,12.634,0,0,1-9.43,14.053,10.743,10.743,0,0,1-1.217.243,9.113,9.113,0,0,1-1.338.122l-.608.061Z" transform="translate(0.1 -0.744)"/>
          <path id="Path_10-5" data-name="Path 10" class="cls-6" d="M14.719,17.146a2.54,2.54,0,0,1-1.947-.973c-1.4-1.764-2.981-3.833-4.563-5.9C7.48,9.419,6.872,8.507,6.2,7.594l-.608-.852c-.122-.183-.183-.3-.3-.487l-.061-.183a.554.554,0,0,1,.061-.73A.906.906,0,0,1,5.837,5.1a.366.366,0,0,1,.243.061l.183.122a2.134,2.134,0,0,1,.487.3l.973.669c1.034.73,2.129,1.521,3.163,2.312,1.764,1.338,3.528,2.738,5.232,4.076l.122.061a2.41,2.41,0,0,1,.548,3.285A2.528,2.528,0,0,1,14.719,17.146Z" transform="translate(-1.944 -1.997)"/>
          <path id="Path_11-5" data-name="Path 11" class="cls-6" d="M19.228,4.928a2.71,2.71,0,0,1-1.764-.73,2.166,2.166,0,0,1-.669-1.764,2.464,2.464,0,0,1,4.928.061,2.454,2.454,0,0,1-2.494,2.433Z" transform="translate(-6.513 0)"/>
        </g>
      </g>
    </g>
    <g id="Skill-9" data-name="Skill" transform="translate(0 709)">
      <g class="cls-9" transform="matrix(1, 0, 0, 1, 0, -709)">
        <rect id="Rectangle_1-20" data-name="Rectangle 1" class="cls-3" width="350" height="70" rx="3" transform="translate(5 713)"/>
      </g>
      <text id="yesterday_21:21-3" data-name="yesterday 21:21" class="cls-4" transform="translate(23 26)"><tspan x="0" y="0">yesterday 21:21</tspan></text>
      <text id="Picie_wody-4" data-name="Picie wody" class="cls-5" transform="translate(23 54)"><tspan x="0" y="0">Picie wody</tspan></text>
      <text id="_10_exp-4" data-name="+10 exp" class="cls-4" transform="translate(299 26)"><tspan x="0" y="0">+10 exp</tspan></text>
      <g id="Group_17-4" data-name="Group 17" transform="translate(312.732 37.77)">
        <path id="Path_12-4" data-name="Path 12" class="cls-6" d="M18.756,10.634A1.3,1.3,0,0,1,17.47,11.92H11.92V17.47a1.3,1.3,0,0,1-1.285,1.285H8.063A1.3,1.3,0,0,1,6.778,17.47V11.92H1.285A1.3,1.3,0,0,1,0,10.634V8.063A1.3,1.3,0,0,1,1.285,6.778H6.836V1.285A1.3,1.3,0,0,1,8.122,0h2.571a1.3,1.3,0,0,1,1.285,1.285V6.836h5.551a1.3,1.3,0,0,1,1.285,1.285v2.512Z"/>
      </g>
    </g>
    <g id="Skill-10" data-name="Skill" transform="translate(0 785)">
      <g class="cls-8" transform="matrix(1, 0, 0, 1, 0, -785)">
        <rect id="Rectangle_1-21" data-name="Rectangle 1" class="cls-3" width="350" height="70" rx="3" transform="translate(5 789)"/>
      </g>
      <text id="yesterday_17:11-2" data-name="yesterday 17:11" class="cls-4" transform="translate(23 26)"><tspan x="0" y="0">yesterday 17:11</tspan></text>
      <text id="Picie_wody-5" data-name="Picie wody" class="cls-5" transform="translate(23 54)"><tspan x="0" y="0">Picie wody</tspan></text>
      <text id="_10_exp-5" data-name="+10 exp" class="cls-4" transform="translate(299 26)"><tspan x="0" y="0">+10 exp</tspan></text>
      <g id="Group_17-5" data-name="Group 17" transform="translate(312.732 37.77)">
        <path id="Path_12-5" data-name="Path 12" class="cls-6" d="M18.756,10.634A1.3,1.3,0,0,1,17.47,11.92H11.92V17.47a1.3,1.3,0,0,1-1.285,1.285H8.063A1.3,1.3,0,0,1,6.778,17.47V11.92H1.285A1.3,1.3,0,0,1,0,10.634V8.063A1.3,1.3,0,0,1,1.285,6.778H6.836V1.285A1.3,1.3,0,0,1,8.122,0h2.571a1.3,1.3,0,0,1,1.285,1.285V6.836h5.551a1.3,1.3,0,0,1,1.285,1.285v2.512Z"/>
      </g>
    </g>
    <g id="Skill-11" data-name="Skill" transform="translate(0 861)">
      <g class="cls-7" transform="matrix(1, 0, 0, 1, 0, -861)">
        <rect id="Rectangle_1-22" data-name="Rectangle 1" class="cls-3" width="350" height="70" rx="3" transform="translate(5 865)"/>
      </g>
      <text id="_19.05_11:50_12:15-4" data-name="19.05 11:50 – 12:15" class="cls-4" transform="translate(23 26)"><tspan x="0" y="0">19.05 11:50 – 12:15</tspan></text>
      <text id="Robienie_na_drutach-4" data-name="Robienie na drutach" class="cls-5" transform="translate(23 54)"><tspan x="0" y="0">Robienie na drutach</tspan></text>
      <text id="_30_exp-6" data-name="+30 exp" class="cls-4" transform="translate(299 26)"><tspan x="0" y="0">+30 exp</tspan></text>
      <g id="Group_16-6" data-name="Group 16" transform="translate(309.362 34.265)">
        <g id="Group_8-6" data-name="Group 8" transform="translate(0 0)">
          <path id="Path_9-6" data-name="Path 9" class="cls-6" d="M12.615,26.174A12.823,12.823,0,0,1,.143,15.831a12.37,12.37,0,0,1,.73-7.239A1.88,1.88,0,0,1,2.516,7.436a1.776,1.776,0,0,1,.548.122A1.839,1.839,0,0,1,4.219,9.87c-.061.183-.122.426-.183.608-.122.426-.243.791-.365,1.156a9.042,9.042,0,0,0,5.414,10.22,8.655,8.655,0,0,0,3.468.73A9.185,9.185,0,0,0,21.5,15.406,8.987,8.987,0,0,0,17.056,5.55a2.417,2.417,0,0,1-1.217-1.338,1.737,1.737,0,0,1,.608-1.886A1.726,1.726,0,0,1,17.482,1.9a1.521,1.521,0,0,1,.852.243,13.075,13.075,0,0,1,4.441,3.711,12.39,12.39,0,0,1,2.433,5.84,12.634,12.634,0,0,1-9.43,14.053,10.743,10.743,0,0,1-1.217.243,9.113,9.113,0,0,1-1.338.122l-.608.061Z" transform="translate(0.1 -0.744)"/>
          <path id="Path_10-6" data-name="Path 10" class="cls-6" d="M14.719,17.146a2.54,2.54,0,0,1-1.947-.973c-1.4-1.764-2.981-3.833-4.563-5.9C7.48,9.419,6.872,8.507,6.2,7.594l-.608-.852c-.122-.183-.183-.3-.3-.487l-.061-.183a.554.554,0,0,1,.061-.73A.906.906,0,0,1,5.837,5.1a.366.366,0,0,1,.243.061l.183.122a2.134,2.134,0,0,1,.487.3l.973.669c1.034.73,2.129,1.521,3.163,2.312,1.764,1.338,3.528,2.738,5.232,4.076l.122.061a2.41,2.41,0,0,1,.548,3.285A2.528,2.528,0,0,1,14.719,17.146Z" transform="translate(-1.944 -1.997)"/>
          <path id="Path_11-6" data-name="Path 11" class="cls-6" d="M19.228,4.928a2.71,2.71,0,0,1-1.764-.73,2.166,2.166,0,0,1-.669-1.764,2.464,2.464,0,0,1,4.928.061,2.454,2.454,0,0,1-2.494,2.433Z" transform="translate(-6.513 0)"/>
        </g>
      </g>
    </g>
    <g id="Group_25" data-name="Group 25" transform="translate(282.609 48.147)">
      <path id="Path_16" data-name="Path 16" class="cls-3" d="M26.018,2.058,16.8,11.28V25.2a1.172,1.172,0,0,1-.741,1.07,1.044,1.044,0,0,1-.494.082.955.955,0,0,1-.823-.329L9.963,21.243a1.057,1.057,0,0,1-.329-.823V11.28L.329,2.058A1.29,1.29,0,0,1,.082.741,1.291,1.291,0,0,1,1.235,0H25.2a1.172,1.172,0,0,1,1.07.741A1.028,1.028,0,0,1,26.018,2.058Z" transform="translate(0)"/>
    </g>
  </g>
</svg>
