<svg xmlns="http://www.w3.org/2000/svg" xmlns:xlink="http://www.w3.org/1999/xlink" viewBox="0 0 360 640">
  <defs>
    <style>
      .cls-1 {
        clip-path: url(#clip-Klikniety_Skill);
      }

      .cls-2 {
        fill: #00d1a0;
      }

      .cls-3 {
        fill: #fff;
      }

      .cls-10, .cls-4, .cls-8 {
        fill: #707070;
      }

      .cls-4 {
        font-size: 24px;
      }

      .cls-4, .cls-7 {
        font-family: Roboto-Bold, Roboto;
        font-weight: 700;
      }

      .cls-5 {
        font-size: 14px;
        font-family: Roboto-Regular, Roboto;
        font-weight: 400;
      }

      .cls-6 {
        fill: #e4e4e4;
      }

      .cls-7, .cls-8 {
        font-size: 18px;
      }

      .cls-8 {
        font-family: Roboto-Light, Roboto;
        font-weight: 300;
      }

      .cls-9 {
        fill: #bcbcbc;
      }

      .cls-10 {
        font-size: 10px;
        font-family: Roboto-Italic, Roboto;
        font-style: italic;
      }

      .cls-11 {
        fill: none;
      }

      .cls-12 {
        filter: url(#Rectangle_1-4);
      }

      .cls-13 {
        filter: url(#Rectangle_1-3);
      }

      .cls-14 {
        filter: url(#Rectangle_1-2);
      }

      .cls-15 {
        filter: url(#Path_14);
      }

      .cls-16 {
        filter: url(#Rectangle_1);
      }
    </style>
    <filter id="Rectangle_1" x="2" y="30" width="356" height="76" filterUnits="userSpaceOnUse">
      <feOffset dy="1" input="SourceAlpha"/>
      <feGaussianBlur stdDeviation="1" result="blur"/>
      <feFlood flood-opacity="0.161"/>
      <feComposite operator="in" in2="blur"/>
      <feComposite in="SourceGraphic"/>
    </filter>
    <filter id="Path_14" x="2" y="106" width="356" height="135" filterUnits="userSpaceOnUse">
      <feOffset dy="1" input="SourceAlpha"/>
      <feGaussianBlur stdDeviation="1" result="blur-2"/>
      <feFlood flood-opacity="0.161"/>
      <feComposite operator="in" in2="blur-2"/>
      <feComposite in="SourceGraphic"/>
    </filter>
    <filter id="Rectangle_1-2" x="2" y="241" width="356" height="76" filterUnits="userSpaceOnUse">
      <feOffset dy="1" input="SourceAlpha"/>
      <feGaussianBlur stdDeviation="1" result="blur-3"/>
      <feFlood flood-opacity="0.161"/>
      <feComposite operator="in" in2="blur-3"/>
      <feComposite in="SourceGraphic"/>
    </filter>
    <filter id="Rectangle_1-3" x="2" y="317" width="356" height="76" filterUnits="userSpaceOnUse">
      <feOffset dy="1" input="SourceAlpha"/>
      <feGaussianBlur stdDeviation="1" result="blur-4"/>
      <feFlood flood-opacity="0.161"/>
      <feComposite operator="in" in2="blur-4"/>
      <feComposite in="SourceGraphic"/>
    </filter>
    <filter id="Rectangle_1-4" x="2" y="393" width="356" height="76" filterUnits="userSpaceOnUse">
      <feOffset dy="1" input="SourceAlpha"/>
      <feGaussianBlur stdDeviation="1" result="blur-5"/>
      <feFlood flood-opacity="0.161"/>
      <feComposite operator="in" in2="blur-5"/>
      <feComposite in="SourceGraphic"/>
    </filter>
    <clipPath id="clip-Klikniety_Skill">
      <rect width="360" height="640"/>
    </clipPath>
  </defs>
  <g id="Klikniety_Skill" data-name="Klikniety Skill" class="cls-1">
    <rect class="cls-6" width="360" height="640"/>
    <rect id="Rectangle_5" data-name="Rectangle 5" class="cls-2" width="360" height="97" transform="translate(0 543)"/>
    <g id="Group_3" data-name="Group 3" transform="translate(40 577)">
      <path id="Path_1" data-name="Path 1" class="cls-3" d="M16.5,33A16.308,16.308,0,0,1,4,27.2l2.7-2.7a12.515,12.515,0,0,0,9.8,4.7,12.7,12.7,0,1,0,0-25.4A12.439,12.439,0,0,0,7.9,7.2l-.8.7,3.8,3.9a.44.44,0,0,1,.1.5c-.1.2-.2.3-.4.3H.5a.536.536,0,0,1-.5-.5V1.9c0-.2.1-.3.3-.4H.5a.367.367,0,0,1,.3.1L4.5,5.2l.7-.7A16.764,16.764,0,0,1,16.5,0a16.5,16.5,0,0,1,0,33Z"/>
      <path id="Path_2" data-name="Path 2" class="cls-3" d="M19.4,18.7a.684.684,0,0,1-.7.7H11.4a.684.684,0,0,1-.7-.7V17.2a.684.684,0,0,1,.7-.7h5.1v-8a.684.684,0,0,1,.7-.7h1.5a.684.684,0,0,1,.7.7Z"/>
    </g>
    <g id="Group_4" data-name="Group 4" transform="translate(162 575)">
      <path id="Path_3" data-name="Path 3" class="cls-3" d="M17.5,35A17.5,17.5,0,1,1,35,17.5,17.519,17.519,0,0,1,17.5,35ZM27.7,16a1.538,1.538,0,0,0-1.5-1.5H20.4V8.7a1.538,1.538,0,0,0-1.5-1.5H16a1.538,1.538,0,0,0-1.5,1.5v5.8H8.7A1.538,1.538,0,0,0,7.2,16v2.9a1.538,1.538,0,0,0,1.5,1.5h5.8v5.8A1.538,1.538,0,0,0,16,27.7h2.9a1.538,1.538,0,0,0,1.5-1.5V20.4h5.8a1.538,1.538,0,0,0,1.5-1.5Z"/>
    </g>
    <path id="Path_5" data-name="Path 5" class="cls-3" d="M35,20.1c0,.3-.3.8-.6.8l-4.2.6a9.494,9.494,0,0,1-.9,2.1c.8,1.1,1.6,2.1,2.4,3.1a1.421,1.421,0,0,1,.2.6.764.764,0,0,1-.2.5c-.5.7-3.6,4.1-4.4,4.1a1.421,1.421,0,0,1-.6-.2l-3.1-2.5-2.1.9a28.313,28.313,0,0,1-.7,4.2.849.849,0,0,1-.8.7H15a.773.773,0,0,1-.8-.7l-.6-4.2a18.029,18.029,0,0,1-2.1-.8L8.3,31.7a1.421,1.421,0,0,1-.6.2,1.421,1.421,0,0,1-.6-.2,34.089,34.089,0,0,1-3.8-3.8c-.1-.2-.2-.3-.2-.5a.764.764,0,0,1,.2-.5c.8-1,1.6-2.1,2.4-3.1a9.172,9.172,0,0,1-.9-2.3L.6,20.9A1.149,1.149,0,0,1,0,20V14.9c0-.3.3-.8.6-.8l4.2-.6a9.493,9.493,0,0,1,.9-2.1A38.121,38.121,0,0,0,3.3,8.2a.725.725,0,0,1,0-1c.5-.8,3.6-4.1,4.4-4.1a1.421,1.421,0,0,1,.6.2l3.1,2.4,2.1-.9A28.313,28.313,0,0,1,14.2.6c0-.3.4-.6.8-.6h5a.773.773,0,0,1,.8.7l.6,4.2a18.028,18.028,0,0,1,2.1.8l3.2-2.4a.764.764,0,0,1,.5-.2,1.421,1.421,0,0,1,.6.2,28.093,28.093,0,0,1,3.8,3.9.725.725,0,0,1,0,1c-.8,1-1.6,2.1-2.4,3.1a10.2,10.2,0,0,1,.9,2.2l4.2.6a.849.849,0,0,1,.7.8ZM17.5,11.7a5.8,5.8,0,1,0,5.8,5.8A5.8,5.8,0,0,0,17.5,11.7Z" transform="translate(285 575)"/>
    <g id="Skill" transform="translate(0 28)">
      <g class="cls-16" transform="matrix(1, 0, 0, 1, 0, -28)">
        <rect id="Rectangle_1-5" data-name="Rectangle 1" class="cls-3" width="350" height="70" rx="3" transform="translate(5 32)"/>
      </g>
      <text id="_73Lvl" data-name="73Lvl" class="cls-4" transform="translate(23 36)"><tspan x="0" y="0">73</tspan><tspan class="cls-5" y="0">Lvl</tspan></text>
      <rect id="Rectangle_2" data-name="Rectangle 2" class="cls-6" width="330" height="6" rx="2" transform="translate(15 52)"/>
      <text id="Picie_wody" data-name="Picie wody" class="cls-7" transform="translate(82 37)"><tspan x="0" y="0">Picie wody</tspan></text>
      <rect id="Rectangle_3" data-name="Rectangle 3" class="cls-2" width="230" height="6" rx="2" transform="translate(15 52)"/>
    </g>
    <g id="Skill-2" data-name="Skill" transform="translate(0 104)">
      <g class="cls-15" transform="matrix(1, 0, 0, 1, 0, -104)">
        <path id="Path_14-2" data-name="Path 14" class="cls-3" d="M3,0H347a3,3,0,0,1,3,3V126a3,3,0,0,1-3,3H3a3,3,0,0,1-3-3V3A3,3,0,0,1,3,0Z" transform="translate(5 108)"/>
      </g>
      <text id="_14Lvl" data-name="14Lvl" class="cls-4" transform="translate(23 36)"><tspan x="0" y="0">14</tspan><tspan class="cls-5" y="0">Lvl</tspan></text>
      <rect id="Rectangle_2-2" data-name="Rectangle 2" class="cls-6" width="330" height="6" rx="2" transform="translate(15 52)"/>
      <text id="Kliknij_mnie" data-name="Kliknij mnie" class="cls-7" transform="translate(82 37)"><tspan x="0" y="0">Kliknij mnie</tspan></text>
      <rect id="Rectangle_3-2" data-name="Rectangle 3" class="cls-2" width="271" height="6" rx="2" transform="translate(15 52)"/>
      <text id="_20_exp" data-name="20 exp" class="cls-8" transform="translate(219 101)"><tspan x="0" y="0">20 exp</tspan></text>
      <text id="_25min" data-name="25min" class="cls-8" transform="translate(82 101)"><tspan x="0" y="0">25min</tspan></text>
    </g>
    <g id="Skill-3" data-name="Skill" transform="translate(0 239)">
      <g class="cls-14" transform="matrix(1, 0, 0, 1, 0, -239)">
        <rect id="Rectangle_1-6" data-name="Rectangle 1" class="cls-3" width="350" height="70" rx="3" transform="translate(5 243)"/>
      </g>
      <text id="_6Lvl" data-name="6Lvl" class="cls-4" transform="translate(23 36)"><tspan x="0" y="0">6</tspan><tspan class="cls-5" y="0">Lvl</tspan></text>
      <rect id="Rectangle_2-3" data-name="Rectangle 2" class="cls-6" width="330" height="6" rx="2" transform="translate(15 52)"/>
      <text id="Jazda_na_rolkach" data-name="Jazda na rolkach" class="cls-7" transform="translate(82 37)"><tspan x="0" y="0">Jazda na rolkach</tspan></text>
      <rect id="Rectangle_3-3" data-name="Rectangle 3" class="cls-2" width="59" height="6" rx="2" transform="translate(15 52)"/>
    </g>
    <g id="Skill-4" data-name="Skill" transform="translate(0 315)">
      <g class="cls-13" transform="matrix(1, 0, 0, 1, 0, -315)">
        <rect id="Rectangle_1-7" data-name="Rectangle 1" class="cls-3" width="350" height="70" rx="3" transform="translate(5 319)"/>
      </g>
      <text id="_1Lvl" data-name="1Lvl" class="cls-4" transform="translate(23 36)"><tspan x="0" y="0">1</tspan><tspan class="cls-5" y="0">Lvl</tspan></text>
      <rect id="Rectangle_2-4" data-name="Rectangle 2" class="cls-6" width="330" height="6" rx="2" transform="translate(15 52)"/>
      <text id="Pisanie_lewą_ręką" data-name="Pisanie lewą ręką" class="cls-7" transform="translate(82 37)"><tspan x="0" y="0">Pisanie lewą ręką</tspan></text>
      <rect id="Rectangle_3-4" data-name="Rectangle 3" class="cls-2" width="3" height="6" rx="1.5" transform="translate(15 52)"/>
    </g>
    <g id="Group_5" data-name="Group 5" transform="translate(321.4 121.092)">
      <path id="Path_6" data-name="Path 6" class="cls-9" d="M8.849,13.3,0,4.448V0H4.448L13.3,8.849ZM2.341,4.823,4.823,2.341l-.936-.983H2.716V2.716H1.358V3.839Zm9.13,4.4a.187.187,0,0,0-.094-.187L5.619,3.231a.355.355,0,0,0-.187-.094.221.221,0,0,0-.234.234.187.187,0,0,0,.094.187L11.1,9.364a.243.243,0,0,0,.187.094A.214.214,0,0,0,11.471,9.224Zm-.14,6.555L9.552,14,14,9.552l1.779,1.779a1.442,1.442,0,0,1,.421.936,1.348,1.348,0,0,1-.421.983L13.3,15.779a1.478,1.478,0,0,1-1.967,0Z"/>
    </g>
    <text id="_234_256" data-name="234/256" class="cls-10" transform="translate(344 174)"><tspan x="-37.036" y="0">234/256</tspan></text>
    <rect id="Rectangle_8" data-name="Rectangle 8" class="cls-11" width="264" height="47" transform="translate(5 108)"/>
    <g id="Group_10" data-name="Group 10" transform="translate(30 177)">
      <circle id="Ellipse_1" data-name="Ellipse 1" class="cls-2" cx="21.092" cy="21.092" r="21.092" transform="translate(0)"/>
      <g id="Group_9" data-name="Group 9" transform="translate(8.362 8.265)">
        <g id="Group_8" data-name="Group 8" transform="translate(0 0)">
          <path id="Path_9" data-name="Path 9" class="cls-3" d="M12.615,26.174A12.823,12.823,0,0,1,.143,15.831a12.37,12.37,0,0,1,.73-7.239A1.88,1.88,0,0,1,2.516,7.436a1.776,1.776,0,0,1,.548.122A1.839,1.839,0,0,1,4.219,9.87c-.061.183-.122.426-.183.608-.122.426-.243.791-.365,1.156a9.042,9.042,0,0,0,5.414,10.22,8.655,8.655,0,0,0,3.468.73A9.185,9.185,0,0,0,21.5,15.406,8.987,8.987,0,0,0,17.056,5.55a2.417,2.417,0,0,1-1.217-1.338,1.737,1.737,0,0,1,.608-1.886A1.726,1.726,0,0,1,17.482,1.9a1.521,1.521,0,0,1,.852.243,13.075,13.075,0,0,1,4.441,3.711,12.39,12.39,0,0,1,2.433,5.84,12.634,12.634,0,0,1-9.43,14.053,10.743,10.743,0,0,1-1.217.243,9.113,9.113,0,0,1-1.338.122l-.608.061Z" transform="translate(0.1 -0.744)"/>
          <path id="Path_10" data-name="Path 10" class="cls-3" d="M14.719,17.146a2.54,2.54,0,0,1-1.947-.973c-1.4-1.764-2.981-3.833-4.563-5.9C7.48,9.419,6.872,8.507,6.2,7.594l-.608-.852c-.122-.183-.183-.3-.3-.487l-.061-.183a.554.554,0,0,1,.061-.73A.906.906,0,0,1,5.837,5.1a.366.366,0,0,1,.243.061l.183.122a2.134,2.134,0,0,1,.487.3l.973.669c1.034.73,2.129,1.521,3.163,2.312,1.764,1.338,3.528,2.738,5.232,4.076l.122.061a2.41,2.41,0,0,1,.548,3.285A2.528,2.528,0,0,1,14.719,17.146Z" transform="translate(-1.944 -1.997)"/>
          <path id="Path_11" data-name="Path 11" class="cls-3" d="M19.228,4.928a2.71,2.71,0,0,1-1.764-.73,2.166,2.166,0,0,1-.669-1.764,2.464,2.464,0,0,1,4.928.061,2.454,2.454,0,0,1-2.494,2.433Z" transform="translate(-6.513 0)"/>
        </g>
      </g>
    </g>
    <g id="Group_11" data-name="Group 11" transform="translate(164.936 177)">
      <circle id="Ellipse_1-2" data-name="Ellipse 1" class="cls-2" cx="21.092" cy="21.092" r="21.092" transform="translate(0)"/>
      <g id="Group_12" data-name="Group 12" transform="translate(11.796 11.77)">
        <path id="Path_12" data-name="Path 12" class="cls-3" d="M18.756,10.634A1.3,1.3,0,0,1,17.47,11.92H11.92V17.47a1.3,1.3,0,0,1-1.285,1.285H8.063A1.3,1.3,0,0,1,6.778,17.47V11.92H1.285A1.3,1.3,0,0,1,0,10.634V8.063A1.3,1.3,0,0,1,1.285,6.778H6.836V1.285A1.3,1.3,0,0,1,8.122,0h2.571a1.3,1.3,0,0,1,1.285,1.285V6.836h5.551a1.3,1.3,0,0,1,1.285,1.285v2.512Z"/>
      </g>
    </g>
    <g id="Group_13" data-name="Group 13" transform="translate(291.736 122.53)">
      <path id="Path_13" data-name="Path 13" class="cls-9" d="M15.932,1.986a.646.646,0,0,1-.662.662H.662A.646.646,0,0,1,0,1.986V.662A.646.646,0,0,1,.662,0H15.27a.646.646,0,0,1,.662.662Zm0,5.295a.646.646,0,0,1-.662.662H.662A.646.646,0,0,1,0,7.28V5.957a.646.646,0,0,1,.662-.662H15.27a.646.646,0,0,1,.662.662Zm0,5.342a.646.646,0,0,1-.662.662H.662A.646.646,0,0,1,0,12.622V11.3a.646.646,0,0,1,.662-.662H15.27a.646.646,0,0,1,.662.662Z"/>
    </g>
    <rect id="Rectangle_11" data-name="Rectangle 11" class="cls-11" width="360" height="83" transform="translate(0 25)"/>
    <rect id="Rectangle_12" data-name="Rectangle 12" class="cls-11" width="360" height="300" transform="translate(0 243)"/>
    <g id="Skill-5" data-name="Skill" transform="translate(0 391)">
      <g class="cls-12" transform="matrix(1, 0, 0, 1, 0, -391)">
        <rect id="Rectangle_1-8" data-name="Rectangle 1" class="cls-3" width="350" height="70" rx="3" transform="translate(5 395)"/>
      </g>
      <text id="_7Lvl" data-name="7Lvl" class="cls-4" transform="translate(23 36)"><tspan x="0" y="0">7</tspan><tspan class="cls-5" y="0">Lvl</tspan></text>
      <rect id="Rectangle_2-5" data-name="Rectangle 2" class="cls-6" width="330" height="6" rx="2" transform="translate(15 52)"/>
      <text id="Robienie_na_drutach" data-name="Robienie na drutach" class="cls-7" transform="translate(82 37)"><tspan x="0" y="0">Robienie na drutach</tspan></text>
      <rect id="Rectangle_3-5" data-name="Rectangle 3" class="cls-2" width="215" height="6" rx="2" transform="translate(15 52)"/>
    </g>
  </g>
</svg>
