<svg xmlns="http://www.w3.org/2000/svg" xmlns:xlink="http://www.w3.org/1999/xlink" viewBox="0 0 360 640">
  <defs>
    <style>
      .cls-1 {
        clip-path: url(#clip-New_skill);
      }

      .cls-2 {
        fill: #fff;
      }

      .cls-3 {
        fill: #707070;
        font-size: 24px;
      }

      .cls-3, .cls-6 {
        font-family: Roboto-Bold, Roboto;
        font-weight: 700;
      }

      .cls-4 {
        font-size: 14px;
        font-family: Roboto-Regular, Roboto;
        font-weight: 400;
      }

      .cls-5 {
        fill: #e4e4e4;
      }

      .cls-6 {
        font-size: 18px;
      }

      .cls-7 {
        fill: #00d1a0;
      }

      .cls-8 {
        filter: url(#Rectangle_1-6);
      }

      .cls-9 {
        filter: url(#Rectangle_1-5);
      }

      .cls-10 {
        filter: url(#Rectangle_1-4);
      }

      .cls-11 {
        filter: url(#Rectangle_1-3);
      }

      .cls-12 {
        filter: url(#Rectangle_1-2);
      }

      .cls-13 {
        filter: url(#Rectangle_1);
      }
    </style>
    <filter id="Rectangle_1" x="2" y="30" width="356" height="76" filterUnits="userSpaceOnUse">
      <feOffset dy="1" input="SourceAlpha"/>
      <feGaussianBlur stdDeviation="1" result="blur"/>
      <feFlood flood-opacity="0.161"/>
      <feComposite operator="in" in2="blur"/>
      <feComposite in="SourceGraphic"/>
    </filter>
    <filter id="Rectangle_1-2" x="2" y="106" width="356" height="76" filterUnits="userSpaceOnUse">
      <feOffset dy="1" input="SourceAlpha"/>
      <feGaussianBlur stdDeviation="1" result="blur-2"/>
      <feFlood flood-opacity="0.161"/>
      <feComposite operator="in" in2="blur-2"/>
      <feComposite in="SourceGraphic"/>
    </filter>
    <filter id="Rectangle_1-3" x="2" y="182" width="356" height="76" filterUnits="userSpaceOnUse">
      <feOffset dy="1" input="SourceAlpha"/>
      <feGaussianBlur stdDeviation="1" result="blur-3"/>
      <feFlood flood-opacity="0.161"/>
      <feComposite operator="in" in2="blur-3"/>
      <feComposite in="SourceGraphic"/>
    </filter>
    <filter id="Rectangle_1-4" x="2" y="258" width="356" height="76" filterUnits="userSpaceOnUse">
      <feOffset dy="1" input="SourceAlpha"/>
      <feGaussianBlur stdDeviation="1" result="blur-4"/>
      <feFlood flood-opacity="0.161"/>
      <feComposite operator="in" in2="blur-4"/>
      <feComposite in="SourceGraphic"/>
    </filter>
    <filter id="Rectangle_1-5" x="2" y="334" width="356" height="76" filterUnits="userSpaceOnUse">
      <feOffset dy="1" input="SourceAlpha"/>
      <feGaussianBlur stdDeviation="1" result="blur-5"/>
      <feFlood flood-opacity="0.161"/>
      <feComposite operator="in" in2="blur-5"/>
      <feComposite in="SourceGraphic"/>
    </filter>
    <filter id="Rectangle_1-6" x="2" y="410" width="356" height="76" filterUnits="userSpaceOnUse">
      <feOffset dy="1" input="SourceAlpha"/>
      <feGaussianBlur stdDeviation="1" result="blur-6"/>
      <feFlood flood-opacity="0.161"/>
      <feComposite operator="in" in2="blur-6"/>
      <feComposite in="SourceGraphic"/>
    </filter>
    <clipPath id="clip-New_skill">
      <rect width="360" height="640"/>
    </clipPath>
  </defs>
  <g id="New_skill" data-name="New skill" class="cls-1">
    <rect class="cls-5" width="360" height="640"/>
    <g id="Skill" transform="translate(0 28)">
      <g class="cls-13" transform="matrix(1, 0, 0, 1, 0, -28)">
        <rect id="Rectangle_1-7" data-name="Rectangle 1" class="cls-2" width="350" height="70" rx="3" transform="translate(5 32)"/>
      </g>
      <text id="_73Lvl" data-name="73Lvl" class="cls-3" transform="translate(23 36)"><tspan x="0" y="0">73</tspan><tspan class="cls-4" y="0">Lvl</tspan></text>
      <rect id="Rectangle_2" data-name="Rectangle 2" class="cls-5" width="330" height="6" rx="2" transform="translate(15 52)"/>
      <text id="Picie_wody" data-name="Picie wody" class="cls-6" transform="translate(82 37)"><tspan x="0" y="0">Picie wody</tspan></text>
      <rect id="Rectangle_3" data-name="Rectangle 3" class="cls-7" width="230" height="6" rx="2" transform="translate(15 52)"/>
    </g>
    <rect id="Rectangle_4" data-name="Rectangle 4" class="cls-7" width="360" height="97" transform="translate(0 543)"/>
    <g id="Skill-2" data-name="Skill" transform="translate(0 104)">
      <g class="cls-12" transform="matrix(1, 0, 0, 1, 0, -104)">
        <rect id="Rectangle_1-8" data-name="Rectangle 1" class="cls-2" width="350" height="70" rx="3" transform="translate(5 108)"/>
      </g>
      <text id="_14Lvl" data-name="14Lvl" class="cls-3" transform="translate(23 36)"><tspan x="0" y="0">14</tspan><tspan class="cls-4" y="0">Lvl</tspan></text>
      <rect id="Rectangle_2-2" data-name="Rectangle 2" class="cls-5" width="330" height="6" rx="2" transform="translate(15 52)"/>
      <text id="Kliknij_mnie" data-name="Kliknij mnie" class="cls-6" transform="translate(82 37)"><tspan x="0" y="0">Kliknij mnie</tspan></text>
      <rect id="Rectangle_3-2" data-name="Rectangle 3" class="cls-7" width="271" height="6" rx="2" transform="translate(15 52)"/>
    </g>
    <g id="Skill-3" data-name="Skill" transform="translate(0 180)">
      <g class="cls-11" transform="matrix(1, 0, 0, 1, 0, -180)">
        <rect id="Rectangle_1-9" data-name="Rectangle 1" class="cls-2" width="350" height="70" rx="3" transform="translate(5 184)"/>
      </g>
      <text id="_6Lvl" data-name="6Lvl" class="cls-3" transform="translate(23 36)"><tspan x="0" y="0">6</tspan><tspan class="cls-4" y="0">Lvl</tspan></text>
      <rect id="Rectangle_2-3" data-name="Rectangle 2" class="cls-5" width="330" height="6" rx="2" transform="translate(15 52)"/>
      <text id="Jazda_na_rolkach" data-name="Jazda na rolkach" class="cls-6" transform="translate(82 37)"><tspan x="0" y="0">Jazda na rolkach</tspan></text>
      <rect id="Rectangle_3-3" data-name="Rectangle 3" class="cls-7" width="59" height="6" rx="2" transform="translate(15 52)"/>
    </g>
    <g id="Skill-4" data-name="Skill" transform="translate(0 256)">
      <g class="cls-10" transform="matrix(1, 0, 0, 1, 0, -256)">
        <rect id="Rectangle_1-10" data-name="Rectangle 1" class="cls-2" width="350" height="70" rx="3" transform="translate(5 260)"/>
      </g>
      <text id="_1Lvl" data-name="1Lvl" class="cls-3" transform="translate(23 36)"><tspan x="0" y="0">1</tspan><tspan class="cls-4" y="0">Lvl</tspan></text>
      <rect id="Rectangle_2-4" data-name="Rectangle 2" class="cls-5" width="330" height="6" rx="2" transform="translate(15 52)"/>
      <text id="Pisanie_lewą_ręką" data-name="Pisanie lewą ręką" class="cls-6" transform="translate(82 37)"><tspan x="0" y="0">Pisanie lewą ręką</tspan></text>
      <rect id="Rectangle_3-4" data-name="Rectangle 3" class="cls-7" width="3" height="6" rx="1.5" transform="translate(15 52)"/>
    </g>
    <g id="Group_1" data-name="Group 1" transform="translate(40 577)">
      <path id="Path_1" data-name="Path 1" class="cls-2" d="M16.5,33A16.308,16.308,0,0,1,4,27.2l2.7-2.7a12.515,12.515,0,0,0,9.8,4.7,12.7,12.7,0,1,0,0-25.4A12.439,12.439,0,0,0,7.9,7.2l-.8.7,3.8,3.9a.44.44,0,0,1,.1.5c-.1.2-.2.3-.4.3H.5a.536.536,0,0,1-.5-.5V1.9c0-.2.1-.3.3-.4H.5a.367.367,0,0,1,.3.1L4.5,5.2l.7-.7A16.764,16.764,0,0,1,16.5,0a16.5,16.5,0,0,1,0,33Z"/>
      <path id="Path_2" data-name="Path 2" class="cls-2" d="M19.4,18.7a.684.684,0,0,1-.7.7H11.4a.684.684,0,0,1-.7-.7V17.2a.684.684,0,0,1,.7-.7h5.1v-8a.684.684,0,0,1,.7-.7h1.5a.684.684,0,0,1,.7.7Z"/>
    </g>
    <g id="Group_2" data-name="Group 2" transform="translate(162 575)">
      <path id="Path_3" data-name="Path 3" class="cls-2" d="M17.5,35A17.5,17.5,0,1,1,35,17.5,17.519,17.519,0,0,1,17.5,35ZM27.7,16a1.538,1.538,0,0,0-1.5-1.5H20.4V8.7a1.538,1.538,0,0,0-1.5-1.5H16a1.538,1.538,0,0,0-1.5,1.5v5.8H8.7A1.538,1.538,0,0,0,7.2,16v2.9a1.538,1.538,0,0,0,1.5,1.5h5.8v5.8A1.538,1.538,0,0,0,16,27.7h2.9a1.538,1.538,0,0,0,1.5-1.5V20.4h5.8a1.538,1.538,0,0,0,1.5-1.5Z"/>
    </g>
    <path id="Path_4" data-name="Path 4" class="cls-2" d="M35,20.1c0,.3-.3.8-.6.8l-4.2.6a9.494,9.494,0,0,1-.9,2.1c.8,1.1,1.6,2.1,2.4,3.1a1.421,1.421,0,0,1,.2.6.764.764,0,0,1-.2.5c-.5.7-3.6,4.1-4.4,4.1a1.421,1.421,0,0,1-.6-.2l-3.1-2.5-2.1.9a28.313,28.313,0,0,1-.7,4.2.849.849,0,0,1-.8.7H15a.773.773,0,0,1-.8-.7l-.6-4.2a18.029,18.029,0,0,1-2.1-.8L8.3,31.7a1.421,1.421,0,0,1-.6.2,1.421,1.421,0,0,1-.6-.2,34.089,34.089,0,0,1-3.8-3.8c-.1-.2-.2-.3-.2-.5a.764.764,0,0,1,.2-.5c.8-1,1.6-2.1,2.4-3.1a9.172,9.172,0,0,1-.9-2.3L.6,20.9A1.149,1.149,0,0,1,0,20V14.9c0-.3.3-.8.6-.8l4.2-.6a9.493,9.493,0,0,1,.9-2.1A38.121,38.121,0,0,0,3.3,8.2a.725.725,0,0,1,0-1c.5-.8,3.6-4.1,4.4-4.1a1.421,1.421,0,0,1,.6.2l3.1,2.4,2.1-.9A28.313,28.313,0,0,1,14.2.6c0-.3.4-.6.8-.6h5a.773.773,0,0,1,.8.7l.6,4.2a18.028,18.028,0,0,1,2.1.8l3.2-2.4a.764.764,0,0,1,.5-.2,1.421,1.421,0,0,1,.6.2,28.093,28.093,0,0,1,3.8,3.9.725.725,0,0,1,0,1c-.8,1-1.6,2.1-2.4,3.1a10.2,10.2,0,0,1,.9,2.2l4.2.6a.849.849,0,0,1,.7.8ZM17.5,11.7a5.8,5.8,0,1,0,5.8,5.8A5.8,5.8,0,0,0,17.5,11.7Z" transform="translate(285 575)"/>
    <g id="Skill-5" data-name="Skill" transform="translate(0 332)">
      <g class="cls-9" transform="matrix(1, 0, 0, 1, 0, -332)">
        <rect id="Rectangle_1-11" data-name="Rectangle 1" class="cls-2" width="350" height="70" rx="3" transform="translate(5 336)"/>
      </g>
      <text id="_7Lvl" data-name="7Lvl" class="cls-3" transform="translate(23 36)"><tspan x="0" y="0">7</tspan><tspan class="cls-4" y="0">Lvl</tspan></text>
      <rect id="Rectangle_2-5" data-name="Rectangle 2" class="cls-5" width="330" height="6" rx="2" transform="translate(15 52)"/>
      <text id="Robienie_na_drutach" data-name="Robienie na drutach" class="cls-6" transform="translate(82 37)"><tspan x="0" y="0">Robienie na drutach</tspan></text>
      <rect id="Rectangle_3-5" data-name="Rectangle 3" class="cls-7" width="215" height="6" rx="2" transform="translate(15 52)"/>
    </g>
    <g id="Skill-6" data-name="Skill" transform="translate(0 408)">
      <g class="cls-8" transform="matrix(1, 0, 0, 1, 0, -408)">
        <rect id="Rectangle_1-12" data-name="Rectangle 1" class="cls-2" width="350" height="70" rx="3" transform="translate(5 412)"/>
      </g>
      <text id="_1Lvl-2" data-name="1Lvl" class="cls-3" transform="translate(23 36)"><tspan x="0" y="0">1</tspan><tspan class="cls-4" y="0">Lvl</tspan></text>
      <rect id="Rectangle_2-6" data-name="Rectangle 2" class="cls-5" width="330" height="6" rx="2" transform="translate(15 52)"/>
      <text id="_" data-name="|" class="cls-6" transform="translate(82 37)"><tspan x="0" y="0">|</tspan></text>
      <rect id="Rectangle_3-6" data-name="Rectangle 3" class="cls-7" width="3" height="6" rx="1.5" transform="translate(15 52)"/>
    </g>
    <path id="Path_27" data-name="Path 27" class="cls-2" d="M16.5,33A16.308,16.308,0,0,1,4,27.2l2.7-2.7a12.515,12.515,0,0,0,9.8,4.7,12.7,12.7,0,1,0,0-25.4A12.439,12.439,0,0,0,7.9,7.2l-.8.7,3.8,3.9a.44.44,0,0,1,.1.5c-.1.2-.2.3-.4.3H.5a.536.536,0,0,1-.5-.5V1.9c0-.2.1-.3.3-.4H.5a.367.367,0,0,1,.3.1L4.5,5.2l.7-.7A16.764,16.764,0,0,1,16.5,0a16.5,16.5,0,0,1,0,33Z" transform="translate(40 577)"/>
  </g>
</svg>
