<svg xmlns="http://www.w3.org/2000/svg" xmlns:xlink="http://www.w3.org/1999/xlink" viewBox="0 0 360 700">
  <defs>
    <style>
      .cls-1 {
        clip-path: url(#clip-Settings_1);
      }

      .cls-2 {
        fill: #00d1a0;
      }

      .cls-3 {
        fill: #fff;
      }

      .cls-4, .cls-5, .cls-6 {
        font-size: 18px;
      }

      .cls-4 {
        font-family: Roboto-Bold, Roboto;
        font-weight: 700;
      }

      .cls-5, .cls-6 {
        font-family: Roboto-Regular, Roboto;
      }

      .cls-6 {
        fill: #707070;
      }

      .cls-7 {
        fill: none;
        stroke: #707070;
        opacity: 0.2;
      }
    </style>
    <clipPath id="clip-Settings_1">
      <rect width="360" height="700"/>
    </clipPath>
  </defs>
  <g id="Settings_1" data-name="Settings – 1" class="cls-1">
    <rect class="cls-3" width="360" height="700"/>
    <rect id="Rectangle_24" data-name="Rectangle 24" class="cls-2" width="360" height="97"/>
    <g id="Group_31" data-name="Group 31" transform="translate(42 44.5)">
      <path id="Path_15" data-name="Path 15" class="cls-3" d="M9.131,15.059l9.963,9.963a1.194,1.194,0,0,1,0,1.729l-3.129,3.129a1.194,1.194,0,0,1-1.729,0L.321,15.965a1.194,1.194,0,0,1,0-1.729L14.235.321a1.194,1.194,0,0,1,1.729,0l3.129,3.129a1.194,1.194,0,0,1,0,1.729Z" transform="translate(0.05 0.05)"/>
    </g>
    <g id="Group_32" data-name="Group 32" transform="translate(27.362 218.265)">
      <g id="Group_8" data-name="Group 8" transform="translate(0 0)">
        <path id="Path_9" data-name="Path 9" d="M12.615,26.174A12.823,12.823,0,0,1,.143,15.831a12.37,12.37,0,0,1,.73-7.239A1.88,1.88,0,0,1,2.516,7.436a1.776,1.776,0,0,1,.548.122A1.839,1.839,0,0,1,4.219,9.87c-.061.183-.122.426-.183.608-.122.426-.243.791-.365,1.156a9.042,9.042,0,0,0,5.414,10.22,8.655,8.655,0,0,0,3.468.73A9.185,9.185,0,0,0,21.5,15.406,8.987,8.987,0,0,0,17.056,5.55a2.417,2.417,0,0,1-1.217-1.338,1.737,1.737,0,0,1,.608-1.886A1.726,1.726,0,0,1,17.482,1.9a1.521,1.521,0,0,1,.852.243,13.075,13.075,0,0,1,4.441,3.711,12.39,12.39,0,0,1,2.433,5.84,12.634,12.634,0,0,1-9.43,14.053,10.743,10.743,0,0,1-1.217.243,9.113,9.113,0,0,1-1.338.122l-.608.061Z" transform="translate(0.1 -0.744)"/>
        <path id="Path_10" data-name="Path 10" d="M14.719,17.146a2.54,2.54,0,0,1-1.947-.973c-1.4-1.764-2.981-3.833-4.563-5.9C7.48,9.419,6.872,8.507,6.2,7.594l-.608-.852c-.122-.183-.183-.3-.3-.487l-.061-.183a.554.554,0,0,1,.061-.73A.906.906,0,0,1,5.837,5.1a.366.366,0,0,1,.243.061l.183.122a2.134,2.134,0,0,1,.487.3l.973.669c1.034.73,2.129,1.521,3.163,2.312,1.764,1.338,3.528,2.738,5.232,4.076l.122.061a2.41,2.41,0,0,1,.548,3.285A2.528,2.528,0,0,1,14.719,17.146Z" transform="translate(-1.944 -1.997)"/>
        <path id="Path_11" data-name="Path 11" d="M19.228,4.928a2.71,2.71,0,0,1-1.764-.73,2.166,2.166,0,0,1-.669-1.764,2.464,2.464,0,0,1,4.928.061,2.454,2.454,0,0,1-2.494,2.433Z" transform="translate(-6.513 0)"/>
      </g>
    </g>
    <text id="Timer_Settings" data-name="Timer Settings" class="cls-4" transform="translate(65 237)"><tspan x="0" y="0">Timer Settings</tspan></text>
    <text id="_25:00" data-name="25:00" class="cls-5" transform="translate(281 286)"><tspan x="0" y="0">25:00</tspan></text>
    <text id="Time:" class="cls-6" transform="translate(27 286)"><tspan x="0" y="0">Time:</tspan></text>
    <text id="Add_Expirence_Settings" data-name="Add Expirence Settings" class="cls-4" transform="translate(65 141)"><tspan x="0" y="0">Add Expirence Settings</tspan></text>
    <g id="Group_35" data-name="Group 35" transform="translate(29.253 124.295)">
      <path id="Path_12" data-name="Path 12" d="M21.705,12.306a1.5,1.5,0,0,1-1.488,1.488H13.794v6.424a1.5,1.5,0,0,1-1.488,1.488H9.331a1.5,1.5,0,0,1-1.488-1.488V13.794H1.488A1.5,1.5,0,0,1,0,12.306V9.331A1.5,1.5,0,0,1,1.488,7.844H7.911V1.488A1.5,1.5,0,0,1,9.4,0h2.975a1.5,1.5,0,0,1,1.488,1.488V7.911h6.424A1.5,1.5,0,0,1,21.773,9.4v2.908Z"/>
    </g>
    <text id="Pomodoro_Timer:" data-name="Pomodoro Timer:" class="cls-6" transform="translate(27 374)"><tspan x="0" y="0">Pomodoro Timer:</tspan></text>
    <g id="Group_33" data-name="Group 33" transform="translate(304 357)">
      <path id="Path_24" data-name="Path 24" class="cls-2" d="M21.855,17.734a4.158,4.158,0,0,1-4.121,4.121H4.121A4.117,4.117,0,0,1,0,17.734V4.121A4.078,4.078,0,0,1,4.121,0H17.8a4.1,4.1,0,0,1,4.059,4.121Zm-3.372-9.8a.834.834,0,0,0,0-1.249L17.047,5.245a.834.834,0,0,0-1.249,0L9.117,11.8l-3-3a.834.834,0,0,0-1.249,0L3.434,10.241a.834.834,0,0,0,0,1.249l5.12,5.12a.834.834,0,0,0,1.249,0Z"/>
    </g>
    <text id="_30" data-name="30" class="cls-5" transform="translate(306 325)"><tspan x="0" y="0">30</tspan></text>
    <text id="Expirence_per_session:" data-name="Expirence per session:" class="cls-6" transform="translate(27 325)"><tspan x="0" y="0">Expirence per session:</tspan></text>
    <line id="Line_1" data-name="Line 1" class="cls-7" x2="303" transform="translate(27.5 343.5)"/>
    <text id="_5:00" data-name="5:00" class="cls-5" transform="translate(326 413)"><tspan x="-34.682" y="0">5:00</tspan></text>
    <text id="Length_of_a_break:" data-name="Length of a break:" class="cls-6" transform="translate(27 413)"><tspan x="0" y="0">Length of a break:</tspan></text>
    <text id="_30:00" data-name="30:00" class="cls-5" transform="translate(326 449)"><tspan x="-44.789" y="0">30:00</tspan></text>
    <text id="Length_of_a_big_break:" data-name="Length of a big break:" class="cls-6" transform="translate(27 449)"><tspan x="0" y="0">Length of a big break:</tspan></text>
    <text id="_8" data-name="8" class="cls-5" transform="translate(326 485)"><tspan x="-10.107" y="0">8</tspan></text>
    <text id="Number_of_pomodoros:" data-name="Number of pomodoros:" class="cls-6" transform="translate(27 485)"><tspan x="0" y="0">Number of pomodoros:</tspan></text>
    <text id="_1" data-name="1" class="cls-5" transform="translate(326 521)"><tspan x="-10.107" y="0">1</tspan></text>
    <text id="Big_breaks:" data-name="Big breaks:" class="cls-6" transform="translate(27 521)"><tspan x="0" y="0">Big breaks:</tspan></text>
    <text id="_10" data-name="10" class="cls-5" transform="translate(306 188)"><tspan x="0" y="0">10</tspan></text>
    <text id="Expirence_at_a_time:" data-name="Expirence at a time:" class="cls-6" transform="translate(27 188)"><tspan x="0" y="0">Expirence at a time:</tspan></text>
    <text id="Import_Export" data-name="Import / Export" class="cls-4" transform="translate(65 572)"><tspan x="0" y="0">Import / Export</tspan></text>
    <g id="Group_37" data-name="Group 37" transform="translate(26.776 555.768)">
      <path id="Path_25" data-name="Path 25" d="M19.268,11.395l-9.016,9.016a.933.933,0,0,1-.727.291,1.118,1.118,0,0,1-1.091-1.091v-4.8H1.091A1.118,1.118,0,0,1,0,13.721V7.4A1.118,1.118,0,0,1,1.091,6.3H8.507V1.652a1.08,1.08,0,0,1,1.818-.8l9.016,9.016a.934.934,0,0,1,.291.727A1.168,1.168,0,0,1,19.268,11.395Zm6.18,5.09a4.794,4.794,0,0,1-4.8,4.8H15.342a.5.5,0,0,1-.509-.509c0-.436-.218-1.6.509-1.6H20.65a2.607,2.607,0,0,0,2.618-2.618V4.923A2.607,2.607,0,0,0,20.65,2.306h-4.8c-.436,0-1.091.073-1.091-.509,0-.436-.218-1.6.509-1.6h5.308a4.6,4.6,0,0,1,4.872,4.653Z" transform="translate(0 0)"/>
    </g>
    <text id="Import" class="cls-5" transform="translate(27 619)"><tspan x="0" y="0">Import</tspan></text>
    <text id="Export" class="cls-5" transform="translate(27 662)"><tspan x="0" y="0">Export</tspan></text>
    <line id="Line_2" data-name="Line 2" class="cls-7" x2="303" transform="translate(27.5 634.5)"/>
  </g>
</svg>
