<svg xmlns="http://www.w3.org/2000/svg" xmlns:xlink="http://www.w3.org/1999/xlink" viewBox="0 0 360 640">
  <defs>
    <style>
      .cls-1 {
        clip-path: url(#clip-Skill_-_Play);
      }

      .cls-2 {
        fill: #00d1a0;
      }

      .cls-3 {
        fill: #fff;
      }

      .cls-10, .cls-11, .cls-4, .cls-8, .cls-9 {
        fill: #707070;
      }

      .cls-4 {
        font-size: 24px;
      }

      .cls-4, .cls-7 {
        font-family: Roboto-Bold, Roboto;
        font-weight: 700;
      }

      .cls-5 {
        font-size: 14px;
        font-weight: 400;
      }

      .cls-5, .cls-8 {
        font-family: Roboto-Regular, Roboto;
      }

      .cls-6 {
        fill: #e4e4e4;
      }

      .cls-7, .cls-8 {
        font-size: 18px;
      }

      .cls-10 {
        font-size: 12px;
        font-family: Roboto-LightItalic, Roboto;
        font-weight: 300;
      }

      .cls-10, .cls-11 {
        font-style: italic;
      }

      .cls-11 {
        font-size: 10px;
        font-family: Roboto-Italic, Roboto;
      }

      .cls-12 {
        fill: none;
      }

      .cls-13 {
        filter: url(#Rectangle_1-4);
      }

      .cls-14 {
        filter: url(#Rectangle_1-3);
      }

      .cls-15 {
        filter: url(#Rectangle_1-2);
      }

      .cls-16 {
        filter: url(#Path_14);
      }

      .cls-17 {
        filter: url(#Rectangle_1);
      }
    </style>
    <filter id="Rectangle_1" x="2" y="30" width="356" height="76" filterUnits="userSpaceOnUse">
      <feOffset dy="1" input="SourceAlpha"/>
      <feGaussianBlur stdDeviation="1" result="blur"/>
      <feFlood flood-opacity="0.161"/>
      <feComposite operator="in" in2="blur"/>
      <feComposite in="SourceGraphic"/>
    </filter>
    <filter id="Path_14" x="2" y="106" width="356" height="135" filterUnits="userSpaceOnUse">
      <feOffset dy="1" input="SourceAlpha"/>
      <feGaussianBlur stdDeviation="1" result="blur-2"/>
      <feFlood flood-opacity="0.161"/>
      <feComposite operator="in" in2="blur-2"/>
      <feComposite in="SourceGraphic"/>
    </filter>
    <filter id="Rectangle_1-2" x="2" y="241" width="356" height="76" filterUnits="userSpaceOnUse">
      <feOffset dy="1" input="SourceAlpha"/>
      <feGaussianBlur stdDeviation="1" result="blur-3"/>
      <feFlood flood-opacity="0.161"/>
      <feComposite operator="in" in2="blur-3"/>
      <feComposite in="SourceGraphic"/>
    </filter>
    <filter id="Rectangle_1-3" x="2" y="317" width="356" height="76" filterUnits="userSpaceOnUse">
      <feOffset dy="1" input="SourceAlpha"/>
      <feGaussianBlur stdDeviation="1" result="blur-4"/>
      <feFlood flood-opacity="0.161"/>
      <feComposite operator="in" in2="blur-4"/>
      <feComposite in="SourceGraphic"/>
    </filter>
    <filter id="Rectangle_1-4" x="2" y="393" width="356" height="76" filterUnits="userSpaceOnUse">
      <feOffset dy="1" input="SourceAlpha"/>
      <feGaussianBlur stdDeviation="1" result="blur-5"/>
      <feFlood flood-opacity="0.161"/>
      <feComposite operator="in" in2="blur-5"/>
      <feComposite in="SourceGraphic"/>
    </filter>
    <clipPath id="clip-Skill_-_Play">
      <rect width="360" height="640"/>
    </clipPath>
  </defs>
  <g id="Skill_-_Play" data-name="Skill - Play" class="cls-1">
    <rect class="cls-6" width="360" height="640"/>
    <rect id="Rectangle_5" data-name="Rectangle 5" class="cls-2" width="360" height="97" transform="translate(0 543)"/>
    <g id="Group_3" data-name="Group 3" transform="translate(40 577)">
      <path id="Path_1" data-name="Path 1" class="cls-3" d="M16.5,33A16.308,16.308,0,0,1,4,27.2l2.7-2.7a12.515,12.515,0,0,0,9.8,4.7,12.7,12.7,0,1,0,0-25.4A12.439,12.439,0,0,0,7.9,7.2l-.8.7,3.8,3.9a.44.44,0,0,1,.1.5c-.1.2-.2.3-.4.3H.5a.536.536,0,0,1-.5-.5V1.9c0-.2.1-.3.3-.4H.5a.367.367,0,0,1,.3.1L4.5,5.2l.7-.7A16.764,16.764,0,0,1,16.5,0a16.5,16.5,0,0,1,0,33Z"/>
      <path id="Path_2" data-name="Path 2" class="cls-3" d="M19.4,18.7a.684.684,0,0,1-.7.7H11.4a.684.684,0,0,1-.7-.7V17.2a.684.684,0,0,1,.7-.7h5.1v-8a.684.684,0,0,1,.7-.7h1.5a.684.684,0,0,1,.7.7Z"/>
    </g>
    <g id="Group_4" data-name="Group 4" transform="translate(162 575)">
      <path id="Path_3" data-name="Path 3" class="cls-3" d="M17.5,35A17.5,17.5,0,1,1,35,17.5,17.519,17.519,0,0,1,17.5,35ZM27.7,16a1.538,1.538,0,0,0-1.5-1.5H20.4V8.7a1.538,1.538,0,0,0-1.5-1.5H16a1.538,1.538,0,0,0-1.5,1.5v5.8H8.7A1.538,1.538,0,0,0,7.2,16v2.9a1.538,1.538,0,0,0,1.5,1.5h5.8v5.8A1.538,1.538,0,0,0,16,27.7h2.9a1.538,1.538,0,0,0,1.5-1.5V20.4h5.8a1.538,1.538,0,0,0,1.5-1.5Z"/>
    </g>
    <path id="Path_5" data-name="Path 5" class="cls-3" d="M35,20.1c0,.3-.3.8-.6.8l-4.2.6a9.494,9.494,0,0,1-.9,2.1c.8,1.1,1.6,2.1,2.4,3.1a1.421,1.421,0,0,1,.2.6.764.764,0,0,1-.2.5c-.5.7-3.6,4.1-4.4,4.1a1.421,1.421,0,0,1-.6-.2l-3.1-2.5-2.1.9a28.313,28.313,0,0,1-.7,4.2.849.849,0,0,1-.8.7H15a.773.773,0,0,1-.8-.7l-.6-4.2a18.029,18.029,0,0,1-2.1-.8L8.3,31.7a1.421,1.421,0,0,1-.6.2,1.421,1.421,0,0,1-.6-.2,34.089,34.089,0,0,1-3.8-3.8c-.1-.2-.2-.3-.2-.5a.764.764,0,0,1,.2-.5c.8-1,1.6-2.1,2.4-3.1a9.172,9.172,0,0,1-.9-2.3L.6,20.9A1.149,1.149,0,0,1,0,20V14.9c0-.3.3-.8.6-.8l4.2-.6a9.493,9.493,0,0,1,.9-2.1A38.121,38.121,0,0,0,3.3,8.2a.725.725,0,0,1,0-1c.5-.8,3.6-4.1,4.4-4.1a1.421,1.421,0,0,1,.6.2l3.1,2.4,2.1-.9A28.313,28.313,0,0,1,14.2.6c0-.3.4-.6.8-.6h5a.773.773,0,0,1,.8.7l.6,4.2a18.028,18.028,0,0,1,2.1.8l3.2-2.4a.764.764,0,0,1,.5-.2,1.421,1.421,0,0,1,.6.2,28.093,28.093,0,0,1,3.8,3.9.725.725,0,0,1,0,1c-.8,1-1.6,2.1-2.4,3.1a10.2,10.2,0,0,1,.9,2.2l4.2.6a.849.849,0,0,1,.7.8ZM17.5,11.7a5.8,5.8,0,1,0,5.8,5.8A5.8,5.8,0,0,0,17.5,11.7Z" transform="translate(285 575)"/>
    <g id="Skill" transform="translate(0 28)">
      <g class="cls-17" transform="matrix(1, 0, 0, 1, 0, -28)">
        <rect id="Rectangle_1-5" data-name="Rectangle 1" class="cls-3" width="350" height="70" rx="3" transform="translate(5 32)"/>
      </g>
      <text id="_73Lvl" data-name="73Lvl" class="cls-4" transform="translate(23 36)"><tspan x="0" y="0">73</tspan><tspan class="cls-5" y="0">Lvl</tspan></text>
      <rect id="Rectangle_2" data-name="Rectangle 2" class="cls-6" width="330" height="6" rx="2" transform="translate(15 52)"/>
      <text id="Picie_wody" data-name="Picie wody" class="cls-7" transform="translate(82 37)"><tspan x="0" y="0">Picie wody</tspan></text>
      <rect id="Rectangle_3" data-name="Rectangle 3" class="cls-2" width="230" height="6" rx="2" transform="translate(15 52)"/>
    </g>
    <g id="Skill-2" data-name="Skill" transform="translate(0 104)">
      <g class="cls-16" transform="matrix(1, 0, 0, 1, 0, -104)">
        <path id="Path_14-2" data-name="Path 14" class="cls-3" d="M3,0H347a3,3,0,0,1,3,3V126a3,3,0,0,1-3,3H3a3,3,0,0,1-3-3V3A3,3,0,0,1,3,0Z" transform="translate(5 108)"/>
      </g>
      <text id="_14Lvl" data-name="14Lvl" class="cls-4" transform="translate(23 36)"><tspan x="0" y="0">14</tspan><tspan class="cls-5" y="0">Lvl</tspan></text>
      <rect id="Rectangle_2-2" data-name="Rectangle 2" class="cls-6" width="330" height="6" rx="2" transform="translate(15 52)"/>
      <text id="Kliknij_mnie" data-name="Kliknij mnie" class="cls-7" transform="translate(82 37)"><tspan x="0" y="0">Kliknij mnie</tspan></text>
      <rect id="Rectangle_3-2" data-name="Rectangle 3" class="cls-2" width="271" height="6" rx="2" transform="translate(15 52)"/>
      <text id="_24:59" data-name="24:59" class="cls-8" transform="translate(180 92)"><tspan x="0" y="0">24:59</tspan></text>
      <rect id="Rectangle_14" data-name="Rectangle 14" class="cls-6" width="259" height="10" rx="2" transform="translate(86 105)"/>
      <rect id="Rectangle_15" data-name="Rectangle 15" class="cls-2" width="5" height="10" rx="2" transform="translate(86 105)"/>
      <g id="Group_18" data-name="Group 18" transform="translate(86 77.208)">
        <path id="Path_17" data-name="Path 17" class="cls-9" d="M6.925,15.963a.73.73,0,0,1-.729.729H.729A.73.73,0,0,1,0,15.963V.729A.73.73,0,0,1,.729,0h5.54A.73.73,0,0,1,7,.729V15.963Zm9.695,0a.73.73,0,0,1-.729.729h-5.54a.73.73,0,0,1-.729-.729V.729A.73.73,0,0,1,10.351,0h5.54a.73.73,0,0,1,.729.729Z"/>
      </g>
      <path id="Path_19" data-name="Path 19" class="cls-9" d="M16.619,15.963a.73.73,0,0,1-.729.729H.729A.73.73,0,0,1,0,15.963V.729A.73.73,0,0,1,.729,0H15.963a.73.73,0,0,1,.729.729V15.963Z" transform="translate(150.344 77.208)"/>
      <path id="Path_20" data-name="Path 20" class="cls-6" d="M.584,16.73C.292,16.949,0,16.8,0,16.364V.444A.379.379,0,0,1,.584.079L14.971,8.112c.365.219.365.511,0,.657Z" transform="translate(119 77.184)"/>
      <g id="Group_19" data-name="Group 19" transform="translate(22.944 71.943)">
        <g id="Group_9" data-name="Group 9" transform="translate(8.362 8.265)">
          <g id="Group_8" data-name="Group 8" transform="translate(0 0)">
            <path id="Path_9" data-name="Path 9" class="cls-2" d="M16.672,33.919A16.914,16.914,0,0,1,.221,20.277a16.317,16.317,0,0,1,.963-9.55A2.48,2.48,0,0,1,3.351,9.2a2.343,2.343,0,0,1,.722.16A2.426,2.426,0,0,1,5.6,12.413c-.08.241-.16.562-.241.8-.16.562-.321,1.043-.481,1.525a11.928,11.928,0,0,0,7.142,13.482,11.417,11.417,0,0,0,4.574.963,12.116,12.116,0,0,0,11.8-9.469,11.855,11.855,0,0,0-5.858-13,3.188,3.188,0,0,1-1.6-1.765,2.291,2.291,0,0,1,.8-2.488A2.276,2.276,0,0,1,23.092,1.9a2.006,2.006,0,0,1,1.123.321,17.248,17.248,0,0,1,5.858,4.9,16.344,16.344,0,0,1,3.21,7.7A16.666,16.666,0,0,1,20.845,33.358a14.171,14.171,0,0,1-1.6.321,12.02,12.02,0,0,1-1.765.16l-.8.08Z" transform="translate(0.1 -0.375)"/>
            <path id="Path_10" data-name="Path 10" class="cls-2" d="M17.783,20.989a3.351,3.351,0,0,1-2.568-1.284c-1.846-2.327-3.932-5.056-6.019-7.784C8.233,10.8,7.431,9.594,6.548,8.39l-.8-1.123c-.16-.241-.241-.4-.4-.642l-.08-.241a.731.731,0,0,1,.08-.963A1.2,1.2,0,0,1,6.067,5.1a.482.482,0,0,1,.321.08l.241.16a2.815,2.815,0,0,1,.642.4l1.284.883c1.364.963,2.809,2.006,4.173,3.049,2.327,1.765,4.654,3.611,6.9,5.377l.16.08a3.18,3.18,0,0,1,.722,4.333A3.334,3.334,0,0,1,17.783,20.989Z" transform="translate(-0.931 -1.007)"/>
            <path id="Path_11" data-name="Path 11" class="cls-2" d="M20.007,6.5a3.575,3.575,0,0,1-2.327-.963A2.857,2.857,0,0,1,16.8,3.21a3.25,3.25,0,1,1,6.5.08,3.237,3.237,0,0,1-3.29,3.21Z" transform="translate(-3.235 0)"/>
          </g>
        </g>
      </g>
      <text id="_1exp" data-name="+1exp" class="cls-10" transform="translate(314 92)"><tspan x="0" y="0">+1exp</tspan></text>
    </g>
    <g id="Skill-3" data-name="Skill" transform="translate(0 239)">
      <g class="cls-15" transform="matrix(1, 0, 0, 1, 0, -239)">
        <rect id="Rectangle_1-6" data-name="Rectangle 1" class="cls-3" width="350" height="70" rx="3" transform="translate(5 243)"/>
      </g>
      <text id="_6Lvl" data-name="6Lvl" class="cls-4" transform="translate(23 36)"><tspan x="0" y="0">6</tspan><tspan class="cls-5" y="0">Lvl</tspan></text>
      <rect id="Rectangle_2-3" data-name="Rectangle 2" class="cls-6" width="330" height="6" rx="2" transform="translate(15 52)"/>
      <text id="Jazda_na_rolkach" data-name="Jazda na rolkach" class="cls-7" transform="translate(82 37)"><tspan x="0" y="0">Jazda na rolkach</tspan></text>
      <rect id="Rectangle_3-3" data-name="Rectangle 3" class="cls-2" width="59" height="6" rx="2" transform="translate(15 52)"/>
    </g>
    <g id="Skill-4" data-name="Skill" transform="translate(0 315)">
      <g class="cls-14" transform="matrix(1, 0, 0, 1, 0, -315)">
        <rect id="Rectangle_1-7" data-name="Rectangle 1" class="cls-3" width="350" height="70" rx="3" transform="translate(5 319)"/>
      </g>
      <text id="_1Lvl" data-name="1Lvl" class="cls-4" transform="translate(23 36)"><tspan x="0" y="0">1</tspan><tspan class="cls-5" y="0">Lvl</tspan></text>
      <rect id="Rectangle_2-4" data-name="Rectangle 2" class="cls-6" width="330" height="6" rx="2" transform="translate(15 52)"/>
      <text id="Pisanie_lewą_ręką" data-name="Pisanie lewą ręką" class="cls-7" transform="translate(82 37)"><tspan x="0" y="0">Pisanie lewą ręką</tspan></text>
      <rect id="Rectangle_3-4" data-name="Rectangle 3" class="cls-2" width="3" height="6" rx="1.5" transform="translate(15 52)"/>
    </g>
    <text id="_234_256" data-name="234/256" class="cls-11" transform="translate(344 174)"><tspan x="-37.036" y="0">234/256</tspan></text>
    <rect id="Rectangle_8" data-name="Rectangle 8" class="cls-12" width="264" height="47" transform="translate(5 108)"/>
    <rect id="Rectangle_11" data-name="Rectangle 11" class="cls-12" width="360" height="83" transform="translate(0 25)"/>
    <rect id="Rectangle_12" data-name="Rectangle 12" class="cls-12" width="360" height="300" transform="translate(0 243)"/>
    <g id="Skill-5" data-name="Skill" transform="translate(0 391)">
      <g class="cls-13" transform="matrix(1, 0, 0, 1, 0, -391)">
        <rect id="Rectangle_1-8" data-name="Rectangle 1" class="cls-3" width="350" height="70" rx="3" transform="translate(5 395)"/>
      </g>
      <text id="_7Lvl" data-name="7Lvl" class="cls-4" transform="translate(23 36)"><tspan x="0" y="0">7</tspan><tspan class="cls-5" y="0">Lvl</tspan></text>
      <rect id="Rectangle_2-5" data-name="Rectangle 2" class="cls-6" width="330" height="6" rx="2" transform="translate(15 52)"/>
      <text id="Robienie_na_drutach" data-name="Robienie na drutach" class="cls-7" transform="translate(82 37)"><tspan x="0" y="0">Robienie na drutach</tspan></text>
      <rect id="Rectangle_3-5" data-name="Rectangle 3" class="cls-2" width="215" height="6" rx="2" transform="translate(15 52)"/>
    </g>
  </g>
</svg>
