<svg id="Warstwa_1" data-name="Warstwa 1" xmlns="http://www.w3.org/2000/svg" viewBox="0 0 35 35"><title>add-skill</title><g id="Group_4" data-name="Group 4"><path id="Path_3" data-name="Path 3" d="M17.5,35A17.5,17.5,0,1,1,35,17.5,17.51,17.51,0,0,1,17.5,35ZM27.7,16a1.54,1.54,0,0,0-1.5-1.5H20.4V8.7a1.54,1.54,0,0,0-1.5-1.5H16a1.54,1.54,0,0,0-1.5,1.5v5.8H8.7A1.54,1.54,0,0,0,7.2,16v2.9a1.54,1.54,0,0,0,1.5,1.5h5.8v5.8A1.54,1.54,0,0,0,16,27.7h2.9a1.54,1.54,0,0,0,1.5-1.5V20.4h5.8a1.54,1.54,0,0,0,1.5-1.5Z" fill="#fff"/></g></svg>