<svg id="Warstwa_1" data-name="Warstwa 1" xmlns="http://www.w3.org/2000/svg" viewBox="0 0 21.53 21.58"><title>cancel</title><g id="Group_30" data-name="Group 30"><path id="Path_23" data-name="Path 23" d="M21.1,18.62,18.62,21.1a1.72,1.72,0,0,1-1.2.48,1.64,1.64,0,0,1-1.2-.48l-5.35-5.35L5.52,21.1a1.76,1.76,0,0,1-1.2.48,1.62,1.62,0,0,1-1.2-.48L.64,18.62a1.72,1.72,0,0,1-.48-1.2,1.64,1.64,0,0,1,.48-1.2L6,10.87.48,5.44A1.64,1.64,0,0,1,0,4.24,1.62,1.62,0,0,1,.48,3L3,.56A1.61,1.61,0,0,1,4.24,0a1.64,1.64,0,0,1,1.2.48l5.35,5.36L16.14.48A1.8,1.8,0,0,1,17.34,0a1.62,1.62,0,0,1,1.2.48L21,3a1.72,1.72,0,0,1,.48,1.2A1.64,1.64,0,0,1,21,5.36l-5.35,5.35L21,16.07a1.72,1.72,0,0,1,.48,1.2A1.56,1.56,0,0,1,21.1,18.62Z" fill="#fff"/></g></svg>