<svg id="Warstwa_1" data-name="Warstwa 1" xmlns="http://www.w3.org/2000/svg" viewBox="0 0 16.2 16.15"><title>edit</title><g id="Group_5" data-name="Group 5"><path id="Path_6" data-name="Path 6" d="M8.85,13.3,0,4.45V0H4.45L13.3,8.85ZM2.34,4.82,4.82,2.34l-.93-1H2.72V2.72H1.36V3.84Zm9.13,4.4A.18.18,0,0,0,11.38,9L5.62,3.23a.34.34,0,0,0-.19-.09.21.21,0,0,0-.23.2v0a.2.2,0,0,0,.09.19l5.81,5.8a.23.23,0,0,0,.19.1.22.22,0,0,0,.18-.24Zm-.14,6.56L9.55,14,14,9.55l1.78,1.78a1.43,1.43,0,0,1,.42.94,1.35,1.35,0,0,1-.42,1L13.3,15.78a1.48,1.48,0,0,1-2,0Z" fill="#bcbcbc"/></g></svg>