<svg id="Warstwa_1" data-name="Warstwa 1" xmlns="http://www.w3.org/2000/svg" xmlns:xlink="http://www.w3.org/1999/xlink" viewBox="0 0 25.45 21.1"><defs><clipPath id="clip-path"><rect x="-629.65" y="-389.72" width="360" height="640" fill="none"/></clipPath></defs><title>import</title><g clip-path="url(#clip-path)"><g id="Klikniety_Skill" data-name="Klikniety Skill"><g id="Group_37" data-name="Group 37"><path id="Path_25" data-name="Path 25" d="M19.27,11.21l-9,9a.91.91,0,0,1-.73.29,1.12,1.12,0,0,1-1.09-1.09v-4.8H1.09A1.11,1.11,0,0,1,0,13.53V7.21a1.12,1.12,0,0,1,1.09-1.1H8.51V1.46a1.08,1.08,0,0,1,1.81-.8l9,9a.91.91,0,0,1,.29.73A1.17,1.17,0,0,1,19.27,11.21Zm6.18,5.09a4.81,4.81,0,0,1-4.79,4.8H15.34a.52.52,0,0,1-.51-.49v0c0-.44-.22-1.6.51-1.6h5.31a2.62,2.62,0,0,0,2.62-2.6V4.73a2.6,2.6,0,0,0-2.6-2.61H15.85c-.44,0-1.09.07-1.09-.51S14.54,0,15.27,0h5.31a4.6,4.6,0,0,1,4.86,4.32c0,.11,0,.22,0,.33Z"/></g></g></g></svg>