<svg id="Warstwa_1" data-name="Warstwa 1" xmlns="http://www.w3.org/2000/svg" viewBox="0 0 33.55 33.54"><title>timer-icon</title><g id="Group_19" data-name="Group 19"><g id="Group_9" data-name="Group 9"><g id="Group_8" data-name="Group 8"><path id="Path_9" data-name="Path 9" d="M16.77,33.54A16.89,16.89,0,0,1,.32,19.9a16.36,16.36,0,0,1,1-9.55A2.47,2.47,0,0,1,3.45,8.83,2,2,0,0,1,4.17,9,2.42,2.42,0,0,1,5.7,12c-.08.24-.16.56-.24.8-.16.56-.32,1-.48,1.52a11.94,11.94,0,0,0,7.14,13.49,11.42,11.42,0,0,0,4.57,1,12.12,12.12,0,0,0,11.8-9.47,11.84,11.84,0,0,0-5.86-13A3.2,3.2,0,0,1,21,4.57a2.3,2.3,0,0,1,.8-2.48,2.23,2.23,0,0,1,1.36-.56,1.93,1.93,0,0,1,1.12.32,17.13,17.13,0,0,1,5.86,4.9,16.25,16.25,0,0,1,3.21,7.7A16.65,16.65,0,0,1,20.94,33a12.24,12.24,0,0,1-1.6.32,11.52,11.52,0,0,1-1.76.16l-.8.08Z" fill="#00d1a0"/><path id="Path_10" data-name="Path 10" d="M16.85,20a3.35,3.35,0,0,1-2.57-1.28c-1.84-2.33-3.93-5.06-6-7.79C7.3,9.79,6.5,8.59,5.61,7.38l-.8-1.12c-.16-.24-.24-.4-.4-.64l-.08-.24a.76.76,0,0,1,.08-1,1.28,1.28,0,0,1,.72-.32.5.5,0,0,1,.32.08l.25.16a3.27,3.27,0,0,1,.64.4l1.28.89c1.37,1,2.81,2,4.17,3.05,2.33,1.76,4.66,3.61,6.9,5.37l.16.08a3.2,3.2,0,0,1,.73,4.34A3.32,3.32,0,0,1,16.85,20Z" fill="#00d1a0"/><path id="Path_11" data-name="Path 11" d="M16.77,6.5a3.61,3.61,0,0,1-2.33-1,2.9,2.9,0,0,1-.88-2.33,3.25,3.25,0,0,1,6.5.08A3.22,3.22,0,0,1,16.8,6.5Z" fill="#00d1a0"/></g></g></g></svg>