<svg id="Warstwa_1" data-name="Warstwa 1" xmlns="http://www.w3.org/2000/svg" viewBox="0 0 14.14 17.36"><title>drag-n-drop</title><path d="M4.49,9.26a.51.51,0,0,1-.56-.48V3.34L1.45,5.81A.54.54,0,0,1,1.06,6a.57.57,0,0,1-.39-.16l-.5-.51a.54.54,0,0,1,0-.79L4.53.16a.56.56,0,0,1,.78,0L9.68,4.52a.59.59,0,0,1,.16.4.56.56,0,0,1-.17.39l-.5.5A.54.54,0,0,1,8.78,6a.55.55,0,0,1-.39-.16L5.9,3.34V8.78a.51.51,0,0,1-.55.48Z" fill="#bcbcbc"/><path d="M9.23,17.36a.58.58,0,0,1-.4-.16L4.47,12.84a.59.59,0,0,1-.16-.39.58.58,0,0,1,.16-.4l.5-.51a.62.62,0,0,1,.4-.15.57.57,0,0,1,.39.16L8.24,14V8.59A.56.56,0,0,1,8.8,8h.85a.56.56,0,0,1,.56.56V14l2.48-2.48a.57.57,0,0,1,.39-.16.62.62,0,0,1,.41.16l.49.5a.58.58,0,0,1,.16.4.57.57,0,0,1-.16.39L9.62,17.2A.57.57,0,0,1,9.23,17.36Z" fill="#bcbcbc"/></svg>