<svg id="Warstwa_1" data-name="Warstwa 1" xmlns="http://www.w3.org/2000/svg" viewBox="0 0 17.28 18.6"><title>calendar</title><g id="Group_23" data-name="Group 23"><path id="Path_21" data-name="Path 21" d="M17.28,17.28A1.33,1.33,0,0,1,16,18.6H1.32A1.32,1.32,0,0,1,0,17.28H0V4A1.33,1.33,0,0,1,1.32,2.64H2.64v-1A1.65,1.65,0,0,1,4.27,0H5A1.63,1.63,0,0,1,6.61,1.63h0v1h4v-1A1.76,1.76,0,0,1,12.31,0H13a1.63,1.63,0,0,1,1.64,1.63h0v1H16A1.33,1.33,0,0,1,17.28,4Zm-1.33,0V6.66H1.32V17.28ZM5.33,1.64A.31.31,0,0,0,5,1.32h-.7A.31.31,0,0,0,4,1.63H4v3A.32.32,0,0,0,4.32,5H5a.31.31,0,0,0,.32-.31h0Zm7.93,0a.31.31,0,0,0-.3-.32h-.65a.31.31,0,0,0-.32.31h0v3a.31.31,0,0,0,.3.32H13a.31.31,0,0,0,.32-.31h0v-3Z" fill="#fff"/></g></svg>