<svg id="Warstwa_1" data-name="Warstwa 1" xmlns="http://www.w3.org/2000/svg" viewBox="0 0 27.98 21.58"><title>accept</title><g id="Group_29" data-name="Group 29"><path id="Path_22" data-name="Path 22" d="M27.49,5.44,14.39,18.62,11.91,21.1a1.72,1.72,0,0,1-1.2.48,1.64,1.64,0,0,1-1.2-.48L7,18.62.48,12.07a1.74,1.74,0,0,1,0-2.4L3,7.19a1.81,1.81,0,0,1,1.2-.48,1.68,1.68,0,0,1,1.2.48l5.35,5.36L22.62.56A1.43,1.43,0,0,1,23.82,0,1.64,1.64,0,0,1,25,.48L27.5,3A1.81,1.81,0,0,1,28,4.16,1.64,1.64,0,0,1,27.49,5.44Z" fill="#fff"/></g></svg>